<svg width="1920" height="1080" viewBox="0 0 1920 1080" fill="none" xmlns="http://www.w3.org/2000/svg">
<rect width="1920" height="1080" fill="#269E63"/>
<mask id="path-1-outside-1_21_415" maskUnits="userSpaceOnUse" x="645.293" y="458" width="640" height="165" fill="black">
<rect fill="white" x="645.293" y="458" width="640" height="165"/>
<path d="M714.373 620.123C704.411 620.123 696.753 618.413 691.4 614.993C686.047 611.573 682.106 607.781 679.578 603.617H675.564V617H647.906V460.87H676.01V519.084H680.024C681.66 516.407 683.816 513.88 686.493 511.5C689.318 509.121 692.961 507.188 697.422 505.701C702.031 504.066 707.682 503.248 714.373 503.248C723.295 503.248 731.547 505.478 739.131 509.939C746.714 514.251 752.811 520.645 757.421 529.121C762.03 537.597 764.335 547.857 764.335 559.901V563.47C764.335 575.514 762.03 585.774 757.421 594.25C752.811 602.725 746.714 609.193 739.131 613.654C731.547 617.967 723.295 620.123 714.373 620.123ZM705.897 595.588C714.522 595.588 721.734 592.837 727.533 587.335C733.332 581.685 736.231 573.507 736.231 562.8V560.57C736.231 549.864 733.332 541.76 727.533 536.258C721.882 530.608 714.671 527.783 705.897 527.783C697.273 527.783 690.061 530.608 684.262 536.258C678.463 541.76 675.564 549.864 675.564 560.57V562.8C675.564 573.507 678.463 581.685 684.262 587.335C690.061 592.837 697.273 595.588 705.897 595.588ZM790.14 617V460.87H818.243V617H790.14ZM902.024 620.123C891.021 620.123 881.132 617.892 872.359 613.431C863.586 608.97 856.672 602.502 851.616 594.027C846.561 585.551 844.033 575.365 844.033 563.47V559.901C844.033 548.005 846.561 537.82 851.616 529.344C856.672 520.868 863.586 514.4 872.359 509.939C881.132 505.478 891.021 503.248 902.024 503.248C913.028 503.248 922.916 505.478 931.689 509.939C940.462 514.4 947.376 520.868 952.432 529.344C957.488 537.82 960.015 548.005 960.015 559.901V563.47C960.015 575.365 957.488 585.551 952.432 594.027C947.376 602.502 940.462 608.97 931.689 613.431C922.916 617.892 913.028 620.123 902.024 620.123ZM902.024 595.142C910.649 595.142 917.786 592.391 923.436 586.889C929.087 581.239 931.912 573.209 931.912 562.8V560.57C931.912 550.161 929.087 542.206 923.436 536.704C917.935 531.054 910.797 528.229 902.024 528.229C893.4 528.229 886.262 531.054 880.612 536.704C874.962 542.206 872.136 550.161 872.136 560.57V562.8C872.136 573.209 874.962 581.239 880.612 586.889C886.262 592.391 893.4 595.142 902.024 595.142ZM1038.59 620.123C1027.59 620.123 1017.7 617.892 1008.93 613.431C1000.16 608.97 993.243 602.502 988.187 594.027C983.131 585.551 980.603 575.365 980.603 563.47V559.901C980.603 548.005 983.131 537.82 988.187 529.344C993.243 520.868 1000.16 514.4 1008.93 509.939C1017.7 505.478 1027.59 503.248 1038.59 503.248C1049.6 503.248 1059.49 505.478 1068.26 509.939C1077.03 514.4 1083.95 520.868 1089 529.344C1094.06 537.82 1096.59 548.005 1096.59 559.901V563.47C1096.59 575.365 1094.06 585.551 1089 594.027C1083.95 602.502 1077.03 608.97 1068.26 613.431C1059.49 617.892 1049.6 620.123 1038.59 620.123ZM1038.59 595.142C1047.22 595.142 1054.36 592.391 1060.01 586.889C1065.66 581.239 1068.48 573.209 1068.48 562.8V560.57C1068.48 550.161 1065.66 542.206 1060.01 536.704C1054.51 531.054 1047.37 528.229 1038.59 528.229C1029.97 528.229 1022.83 531.054 1017.18 536.704C1011.53 542.206 1008.71 550.161 1008.71 560.57V562.8C1008.71 573.209 1011.53 581.239 1017.18 586.889C1022.83 592.391 1029.97 595.142 1038.59 595.142ZM1122.53 617V506.37H1150.18V518.415H1154.2C1156.13 514.697 1159.33 511.5 1163.79 508.824C1168.25 505.999 1174.12 504.586 1181.41 504.586C1189.29 504.586 1195.61 506.147 1200.37 509.27C1205.13 512.244 1208.77 516.184 1211.3 521.091H1215.31C1217.84 516.333 1221.41 512.393 1226.02 509.27C1230.63 506.147 1237.17 504.586 1245.65 504.586C1252.49 504.586 1258.66 506.073 1264.16 509.047C1269.81 511.872 1274.27 516.259 1277.54 522.207C1280.96 528.006 1282.67 535.366 1282.67 544.288V617H1254.57V546.295C1254.57 540.199 1253.01 535.663 1249.88 532.69C1246.76 529.567 1242.38 528.006 1236.73 528.006C1230.33 528.006 1225.35 530.087 1221.78 534.251C1218.36 538.266 1216.65 544.065 1216.65 551.648V617H1188.55V546.295C1188.55 540.199 1186.99 535.663 1183.86 532.69C1180.74 529.567 1176.35 528.006 1170.7 528.006C1164.31 528.006 1159.33 530.087 1155.76 534.251C1152.34 538.266 1150.63 544.065 1150.63 551.648V617H1122.53Z"/>
</mask>
<path d="M714.373 620.123C704.411 620.123 696.753 618.413 691.4 614.993C686.047 611.573 682.106 607.781 679.578 603.617H675.564V617H647.906V460.87H676.01V519.084H680.024C681.66 516.407 683.816 513.88 686.493 511.5C689.318 509.121 692.961 507.188 697.422 505.701C702.031 504.066 707.682 503.248 714.373 503.248C723.295 503.248 731.547 505.478 739.131 509.939C746.714 514.251 752.811 520.645 757.421 529.121C762.03 537.597 764.335 547.857 764.335 559.901V563.47C764.335 575.514 762.03 585.774 757.421 594.25C752.811 602.725 746.714 609.193 739.131 613.654C731.547 617.967 723.295 620.123 714.373 620.123ZM705.897 595.588C714.522 595.588 721.734 592.837 727.533 587.335C733.332 581.685 736.231 573.507 736.231 562.8V560.57C736.231 549.864 733.332 541.76 727.533 536.258C721.882 530.608 714.671 527.783 705.897 527.783C697.273 527.783 690.061 530.608 684.262 536.258C678.463 541.76 675.564 549.864 675.564 560.57V562.8C675.564 573.507 678.463 581.685 684.262 587.335C690.061 592.837 697.273 595.588 705.897 595.588ZM790.14 617V460.87H818.243V617H790.14ZM902.024 620.123C891.021 620.123 881.132 617.892 872.359 613.431C863.586 608.97 856.672 602.502 851.616 594.027C846.561 585.551 844.033 575.365 844.033 563.47V559.901C844.033 548.005 846.561 537.82 851.616 529.344C856.672 520.868 863.586 514.4 872.359 509.939C881.132 505.478 891.021 503.248 902.024 503.248C913.028 503.248 922.916 505.478 931.689 509.939C940.462 514.4 947.376 520.868 952.432 529.344C957.488 537.82 960.015 548.005 960.015 559.901V563.47C960.015 575.365 957.488 585.551 952.432 594.027C947.376 602.502 940.462 608.97 931.689 613.431C922.916 617.892 913.028 620.123 902.024 620.123ZM902.024 595.142C910.649 595.142 917.786 592.391 923.436 586.889C929.087 581.239 931.912 573.209 931.912 562.8V560.57C931.912 550.161 929.087 542.206 923.436 536.704C917.935 531.054 910.797 528.229 902.024 528.229C893.4 528.229 886.262 531.054 880.612 536.704C874.962 542.206 872.136 550.161 872.136 560.57V562.8C872.136 573.209 874.962 581.239 880.612 586.889C886.262 592.391 893.4 595.142 902.024 595.142ZM1038.59 620.123C1027.59 620.123 1017.7 617.892 1008.93 613.431C1000.16 608.97 993.243 602.502 988.187 594.027C983.131 585.551 980.603 575.365 980.603 563.47V559.901C980.603 548.005 983.131 537.82 988.187 529.344C993.243 520.868 1000.16 514.4 1008.93 509.939C1017.7 505.478 1027.59 503.248 1038.59 503.248C1049.6 503.248 1059.49 505.478 1068.26 509.939C1077.03 514.4 1083.95 520.868 1089 529.344C1094.06 537.82 1096.59 548.005 1096.59 559.901V563.47C1096.59 575.365 1094.06 585.551 1089 594.027C1083.95 602.502 1077.03 608.97 1068.26 613.431C1059.49 617.892 1049.6 620.123 1038.59 620.123ZM1038.59 595.142C1047.22 595.142 1054.36 592.391 1060.01 586.889C1065.66 581.239 1068.48 573.209 1068.48 562.8V560.57C1068.48 550.161 1065.66 542.206 1060.01 536.704C1054.51 531.054 1047.37 528.229 1038.59 528.229C1029.97 528.229 1022.83 531.054 1017.18 536.704C1011.53 542.206 1008.71 550.161 1008.71 560.57V562.8C1008.71 573.209 1011.53 581.239 1017.18 586.889C1022.83 592.391 1029.97 595.142 1038.59 595.142ZM1122.53 617V506.37H1150.18V518.415H1154.2C1156.13 514.697 1159.33 511.5 1163.79 508.824C1168.25 505.999 1174.12 504.586 1181.41 504.586C1189.29 504.586 1195.61 506.147 1200.37 509.27C1205.13 512.244 1208.77 516.184 1211.3 521.091H1215.31C1217.84 516.333 1221.41 512.393 1226.02 509.27C1230.63 506.147 1237.17 504.586 1245.65 504.586C1252.49 504.586 1258.66 506.073 1264.16 509.047C1269.81 511.872 1274.27 516.259 1277.54 522.207C1280.96 528.006 1282.67 535.366 1282.67 544.288V617H1254.57V546.295C1254.57 540.199 1253.01 535.663 1249.88 532.69C1246.76 529.567 1242.38 528.006 1236.73 528.006C1230.33 528.006 1225.35 530.087 1221.78 534.251C1218.36 538.266 1216.65 544.065 1216.65 551.648V617H1188.55V546.295C1188.55 540.199 1186.99 535.663 1183.86 532.69C1180.74 529.567 1176.35 528.006 1170.7 528.006C1164.31 528.006 1159.33 530.087 1155.76 534.251C1152.34 538.266 1150.63 544.065 1150.63 551.648V617H1122.53Z" fill="white"/>
<path d="M691.4 614.993L690.149 616.951L691.4 614.993ZM679.578 603.617L681.564 602.412L680.886 601.294H679.578V603.617ZM675.564 603.617V601.294H673.24V603.617H675.564ZM675.564 617V619.323H677.887V617H675.564ZM647.906 617H645.583V619.323H647.906V617ZM647.906 460.87V458.546H645.583V460.87H647.906ZM676.01 460.87H678.333V458.546H676.01V460.87ZM676.01 519.084H673.686V521.407H676.01V519.084ZM680.024 519.084V521.407H681.327L682.007 520.295L680.024 519.084ZM686.493 511.5L684.996 509.723L684.972 509.743L684.949 509.764L686.493 511.5ZM697.422 505.701L698.157 507.905L698.178 507.898L698.199 507.891L697.422 505.701ZM739.131 509.939L737.953 511.942L737.968 511.95L737.983 511.959L739.131 509.939ZM757.421 529.121L759.462 528.011V528.011L757.421 529.121ZM757.421 594.25L759.462 595.36L757.421 594.25ZM739.131 613.654L740.279 615.674L740.294 615.666L740.309 615.657L739.131 613.654ZM727.533 587.335L729.132 589.021L729.143 589.01L729.154 588.999L727.533 587.335ZM727.533 536.258L725.89 537.901L725.911 537.923L725.934 537.944L727.533 536.258ZM684.262 536.258L685.861 537.944L685.873 537.933L685.884 537.922L684.262 536.258ZM684.262 587.335L682.641 588.999L682.652 589.01L682.663 589.021L684.262 587.335ZM714.373 617.799C704.623 617.799 697.474 616.116 692.651 613.035L690.149 616.951C696.031 620.709 704.199 622.446 714.373 622.446V617.799ZM692.651 613.035C687.509 609.75 683.861 606.194 681.564 602.412L677.592 604.823C680.352 609.368 684.584 613.395 690.149 616.951L692.651 613.035ZM679.578 601.294H675.564V605.941H679.578V601.294ZM673.24 603.617V617H677.887V603.617H673.24ZM675.564 614.677H647.906V619.323H675.564V614.677ZM650.23 617V460.87H645.583V617H650.23ZM647.906 463.193H676.01V458.546H647.906V463.193ZM673.686 460.87V519.084H678.333V460.87H673.686ZM676.01 521.407H680.024V516.761H676.01V521.407ZM682.007 520.295C683.507 517.84 685.507 515.485 688.036 513.237L684.949 509.764C682.125 512.274 679.813 514.975 678.042 517.872L682.007 520.295ZM687.989 513.278C690.538 511.132 693.901 509.324 698.157 507.905L696.687 503.497C692.021 505.053 688.098 507.111 684.996 509.723L687.989 513.278ZM698.199 507.891C702.486 506.37 707.856 505.571 714.373 505.571V500.924C707.508 500.924 701.577 501.762 696.645 503.512L698.199 507.891ZM714.373 505.571C722.887 505.571 730.732 507.694 737.953 511.942L740.309 507.937C732.363 503.263 723.703 500.924 714.373 500.924V505.571ZM737.983 511.959C745.15 516.035 750.954 522.094 755.38 530.231L759.462 528.011C754.668 519.196 748.279 512.468 740.279 507.919L737.983 511.959ZM755.38 530.231C759.763 538.291 762.012 548.15 762.012 559.901H766.658C766.658 547.563 764.297 536.902 759.462 528.011L755.38 530.231ZM762.012 559.901V563.47H766.658V559.901H762.012ZM762.012 563.47C762.012 575.221 759.763 585.079 755.38 593.14L759.462 595.36C764.297 586.469 766.658 575.807 766.658 563.47H762.012ZM755.38 593.14C750.951 601.282 745.139 607.425 737.953 611.652L740.309 615.657C748.29 610.962 754.671 604.169 759.462 595.36L755.38 593.14ZM737.983 611.635C730.757 615.743 722.902 617.799 714.373 617.799V622.446C723.688 622.446 732.338 620.19 740.279 615.674L737.983 611.635ZM705.897 597.911C715.065 597.911 722.865 594.966 729.132 589.021L725.934 585.65C720.602 590.708 713.978 593.264 705.897 593.264V597.911ZM729.154 588.999C735.533 582.784 738.555 573.923 738.555 562.8H733.908C733.908 573.09 731.131 580.586 725.911 585.671L729.154 588.999ZM738.555 562.8V560.57H733.908V562.8H738.555ZM738.555 560.57C738.555 549.451 735.534 540.647 729.132 534.573L725.934 537.944C731.129 542.873 733.908 550.276 733.908 560.57H738.555ZM729.176 534.615C723.045 528.484 715.22 525.459 705.897 525.459V530.106C714.121 530.106 720.72 532.731 725.89 537.901L729.176 534.615ZM705.897 525.459C696.711 525.459 688.904 528.492 682.641 534.594L685.884 537.922C691.219 532.724 697.835 530.106 705.897 530.106V525.459ZM682.663 534.573C676.261 540.647 673.24 549.451 673.24 560.57H677.887C677.887 550.276 680.666 542.873 685.861 537.944L682.663 534.573ZM673.24 560.57V562.8H677.887V560.57H673.24ZM673.24 562.8C673.24 573.923 676.262 582.784 682.641 588.999L685.884 585.671C680.664 580.586 677.887 573.09 677.887 562.8H673.24ZM682.663 589.021C688.93 594.966 696.73 597.911 705.897 597.911V593.264C697.817 593.264 691.193 590.708 685.861 585.65L682.663 589.021ZM790.14 617H787.817V619.323H790.14V617ZM790.14 460.87V458.546H787.817V460.87H790.14ZM818.243 460.87H820.567V458.546H818.243V460.87ZM818.243 617V619.323H820.567V617H818.243ZM792.463 617V460.87H787.817V617H792.463ZM790.14 463.193H818.243V458.546H790.14V463.193ZM815.92 460.87V617H820.567V460.87H815.92ZM818.243 614.677H790.14V619.323H818.243V614.677ZM872.359 613.431L871.306 615.502L872.359 613.431ZM851.616 529.344L853.612 530.534L851.616 529.344ZM872.359 509.939L873.412 512.01L872.359 509.939ZM931.689 509.939L930.636 512.01L931.689 509.939ZM952.432 529.344L950.437 530.534V530.534L952.432 529.344ZM952.432 594.027L950.437 592.836L952.432 594.027ZM931.689 613.431L930.636 611.36L931.689 613.431ZM923.436 586.889L925.057 588.554L925.068 588.543L925.079 588.532L923.436 586.889ZM923.436 536.704L921.772 538.325L921.793 538.347L921.816 538.369L923.436 536.704ZM880.612 536.704L882.233 538.369L882.244 538.358L882.255 538.347L880.612 536.704ZM880.612 586.889L878.969 588.532L878.98 588.543L878.991 588.554L880.612 586.889ZM902.024 617.799C891.343 617.799 881.822 615.637 873.412 611.36L871.306 615.502C880.442 620.148 890.698 622.446 902.024 622.446V617.799ZM873.412 611.36C865.031 607.099 858.443 600.936 853.612 592.836L849.621 595.217C854.901 604.068 862.141 610.842 871.306 615.502L873.412 611.36ZM853.612 592.836C848.811 584.788 846.356 575.032 846.356 563.47H841.709C841.709 575.698 844.31 586.314 849.621 595.217L853.612 592.836ZM846.356 563.47V559.901H841.709V563.47H846.356ZM846.356 559.901C846.356 548.338 848.811 538.582 853.612 530.534L849.621 528.154C844.31 537.057 841.709 547.672 841.709 559.901H846.356ZM853.612 530.534C858.443 522.434 865.031 516.272 873.412 512.01L871.306 507.868C862.141 512.528 854.901 519.302 849.621 528.154L853.612 530.534ZM873.412 512.01C881.822 507.734 891.343 505.571 902.024 505.571V500.924C890.698 500.924 880.442 503.223 871.306 507.868L873.412 512.01ZM902.024 505.571C912.705 505.571 922.226 507.734 930.636 512.01L932.742 507.868C923.606 503.223 913.35 500.924 902.024 500.924V505.571ZM930.636 512.01C939.017 516.272 945.605 522.434 950.437 530.534L954.427 528.154C949.148 519.302 941.907 512.528 932.742 507.868L930.636 512.01ZM950.437 530.534C955.237 538.582 957.692 548.338 957.692 559.901H962.339C962.339 547.672 959.738 537.057 954.427 528.154L950.437 530.534ZM957.692 559.901V563.47H962.339V559.901H957.692ZM957.692 563.47C957.692 575.032 955.237 584.788 950.437 592.836L954.427 595.217C959.738 586.314 962.339 575.698 962.339 563.47H957.692ZM950.437 592.836C945.605 600.936 939.017 607.099 930.636 611.36L932.742 615.502C941.907 610.842 949.148 604.068 954.427 595.217L950.437 592.836ZM930.636 611.36C922.226 615.637 912.705 617.799 902.024 617.799V622.446C913.35 622.446 923.606 620.148 932.742 615.502L930.636 611.36ZM902.024 597.465C911.192 597.465 918.93 594.519 925.057 588.554L921.816 585.225C916.641 590.262 910.105 592.818 902.024 592.818V597.465ZM925.079 588.532C931.286 582.325 934.235 573.631 934.235 562.8H929.589C929.589 572.787 926.888 580.152 921.793 585.246L925.079 588.532ZM934.235 562.8V560.57H929.589V562.8H934.235ZM934.235 560.57C934.235 549.743 931.287 541.106 925.057 535.04L921.816 538.369C926.886 543.306 929.589 550.579 929.589 560.57H934.235ZM925.101 535.084C919.111 528.931 911.347 525.905 902.024 525.905V530.552C910.248 530.552 916.759 533.177 921.772 538.325L925.101 535.084ZM902.024 525.905C892.838 525.905 885.092 528.939 878.969 535.061L882.255 538.347C887.433 533.169 893.962 530.552 902.024 530.552V525.905ZM878.991 535.04C872.761 541.106 869.813 549.743 869.813 560.57H874.46C874.46 550.579 877.162 543.306 882.233 538.369L878.991 535.04ZM869.813 560.57V562.8H874.46V560.57H869.813ZM869.813 562.8C869.813 573.631 872.763 582.325 878.969 588.532L882.255 585.246C877.161 580.152 874.46 572.787 874.46 562.8H869.813ZM878.991 588.554C885.118 594.519 892.856 597.465 902.024 597.465V592.818C893.943 592.818 887.407 590.262 882.233 585.225L878.991 588.554ZM1008.93 613.431L1007.88 615.502L1008.93 613.431ZM988.187 529.344L990.182 530.534L988.187 529.344ZM1008.93 509.939L1009.98 512.01L1008.93 509.939ZM1068.26 509.939L1067.21 512.01L1068.26 509.939ZM1089 529.344L1087.01 530.534V530.534L1089 529.344ZM1089 594.027L1087.01 592.836L1089 594.027ZM1068.26 613.431L1067.21 611.36L1068.26 613.431ZM1060.01 586.889L1061.63 588.554L1061.64 588.543L1061.65 588.532L1060.01 586.889ZM1060.01 536.704L1058.34 538.325L1058.36 538.347L1058.39 538.369L1060.01 536.704ZM1017.18 536.704L1018.8 538.369L1018.81 538.358L1018.83 538.347L1017.18 536.704ZM1017.18 586.889L1015.54 588.532L1015.55 588.543L1015.56 588.554L1017.18 586.889ZM1038.59 617.799C1027.91 617.799 1018.39 615.637 1009.98 611.36L1007.88 615.502C1017.01 620.148 1027.27 622.446 1038.59 622.446V617.799ZM1009.98 611.36C1001.6 607.099 995.014 600.936 990.182 592.836L986.192 595.217C991.471 604.068 998.712 610.842 1007.88 615.502L1009.98 611.36ZM990.182 592.836C985.382 584.788 982.927 575.032 982.927 563.47H978.28C978.28 575.698 980.881 586.314 986.192 595.217L990.182 592.836ZM982.927 563.47V559.901H978.28V563.47H982.927ZM982.927 559.901C982.927 548.338 985.382 538.582 990.182 530.534L986.192 528.154C980.881 537.057 978.28 547.672 978.28 559.901H982.927ZM990.182 530.534C995.014 522.434 1001.6 516.272 1009.98 512.01L1007.88 507.868C998.712 512.528 991.471 519.302 986.192 528.154L990.182 530.534ZM1009.98 512.01C1018.39 507.734 1027.91 505.571 1038.59 505.571V500.924C1027.27 500.924 1017.01 503.223 1007.88 507.868L1009.98 512.01ZM1038.59 505.571C1049.28 505.571 1058.8 507.734 1067.21 512.01L1069.31 507.868C1060.18 503.223 1049.92 500.924 1038.59 500.924V505.571ZM1067.21 512.01C1075.59 516.272 1082.18 522.434 1087.01 530.534L1091 528.154C1085.72 519.302 1078.48 512.528 1069.31 507.868L1067.21 512.01ZM1087.01 530.534C1091.81 538.582 1094.26 548.338 1094.26 559.901H1098.91C1098.91 547.672 1096.31 537.057 1091 528.154L1087.01 530.534ZM1094.26 559.901V563.47H1098.91V559.901H1094.26ZM1094.26 563.47C1094.26 575.032 1091.81 584.788 1087.01 592.836L1091 595.217C1096.31 586.314 1098.91 575.698 1098.91 563.47H1094.26ZM1087.01 592.836C1082.18 600.936 1075.59 607.099 1067.21 611.36L1069.31 615.502C1078.48 610.842 1085.72 604.068 1091 595.217L1087.01 592.836ZM1067.21 611.36C1058.8 615.637 1049.28 617.799 1038.59 617.799V622.446C1049.92 622.446 1060.18 620.148 1069.31 615.502L1067.21 611.36ZM1038.59 597.465C1047.76 597.465 1055.5 594.519 1061.63 588.554L1058.39 585.225C1053.21 590.262 1046.68 592.818 1038.59 592.818V597.465ZM1061.65 588.532C1067.86 582.325 1070.81 573.631 1070.81 562.8H1066.16C1066.16 572.787 1063.46 580.152 1058.36 585.246L1061.65 588.532ZM1070.81 562.8V560.57H1066.16V562.8H1070.81ZM1070.81 560.57C1070.81 549.743 1067.86 541.106 1061.63 535.04L1058.39 538.369C1063.46 543.306 1066.16 550.579 1066.16 560.57H1070.81ZM1061.67 535.084C1055.68 528.931 1047.92 525.905 1038.59 525.905V530.552C1046.82 530.552 1053.33 533.177 1058.34 538.325L1061.67 535.084ZM1038.59 525.905C1029.41 525.905 1021.66 528.939 1015.54 535.061L1018.83 538.347C1024 533.169 1030.53 530.552 1038.59 530.552V525.905ZM1015.56 535.04C1009.33 541.106 1006.38 549.743 1006.38 560.57H1011.03C1011.03 550.579 1013.73 543.306 1018.8 538.369L1015.56 535.04ZM1006.38 560.57V562.8H1011.03V560.57H1006.38ZM1006.38 562.8C1006.38 573.631 1009.33 582.325 1015.54 588.532L1018.83 585.246C1013.73 580.152 1011.03 572.787 1011.03 562.8H1006.38ZM1015.56 588.554C1021.69 594.519 1029.43 597.465 1038.59 597.465V592.818C1030.51 592.818 1023.98 590.262 1018.8 585.225L1015.56 588.554ZM1122.53 617H1120.2V619.323H1122.53V617ZM1122.53 506.37V504.047H1120.2V506.37H1122.53ZM1150.18 506.37H1152.51V504.047H1150.18V506.37ZM1150.18 518.415H1147.86V520.738H1150.18V518.415ZM1154.2 518.415V520.738H1155.61L1156.26 519.487L1154.2 518.415ZM1163.79 508.824L1164.99 510.816L1165.01 510.802L1165.03 510.787L1163.79 508.824ZM1200.37 509.27L1199.09 511.212L1199.12 511.227L1199.14 511.24L1200.37 509.27ZM1211.3 521.091L1209.23 522.155L1209.88 523.415H1211.3V521.091ZM1215.31 521.091V523.415H1216.71L1217.36 522.181L1215.31 521.091ZM1226.02 509.27L1227.32 511.194V511.194L1226.02 509.27ZM1264.16 509.047L1263.05 511.091L1263.09 511.108L1263.12 511.125L1264.16 509.047ZM1277.54 522.207L1275.51 523.326L1275.52 523.357L1275.54 523.387L1277.54 522.207ZM1282.67 617V619.323H1285V617H1282.67ZM1254.57 617H1252.25V619.323H1254.57V617ZM1249.88 532.69L1248.24 534.332L1248.26 534.352L1248.28 534.372L1249.88 532.69ZM1221.78 534.251L1220.02 532.739L1220.01 532.744L1221.78 534.251ZM1216.65 617V619.323H1218.97V617H1216.65ZM1188.55 617H1186.22V619.323H1188.55V617ZM1183.86 532.69L1182.22 534.332L1182.24 534.352L1182.26 534.372L1183.86 532.69ZM1155.76 534.251L1154 532.739L1153.99 532.744L1155.76 534.251ZM1150.63 617V619.323H1152.95V617H1150.63ZM1124.85 617V506.37H1120.2V617H1124.85ZM1122.53 508.694H1150.18V504.047H1122.53V508.694ZM1147.86 506.37V518.415H1152.51V506.37H1147.86ZM1150.18 520.738H1154.2V516.091H1150.18V520.738ZM1156.26 519.487C1157.95 516.232 1160.8 513.325 1164.99 510.816L1162.59 506.832C1157.85 509.676 1154.31 513.162 1152.14 517.343L1156.26 519.487ZM1165.03 510.787C1169.01 508.27 1174.4 506.909 1181.41 506.909V502.263C1173.85 502.263 1167.5 503.727 1162.55 506.861L1165.03 510.787ZM1181.41 506.909C1189.01 506.909 1194.83 508.417 1199.09 511.212L1201.64 507.328C1196.39 503.878 1189.58 502.263 1181.41 502.263V506.909ZM1199.14 511.24C1203.55 513.996 1206.9 517.626 1209.23 522.155L1213.36 520.027C1210.64 514.742 1206.71 510.491 1201.6 507.3L1199.14 511.24ZM1211.3 523.415H1215.31V518.768H1211.3V523.415ZM1217.36 522.181C1219.71 517.769 1223.02 514.111 1227.32 511.194L1224.72 507.346C1219.8 510.674 1215.97 514.897 1213.26 520.001L1217.36 522.181ZM1227.32 511.194C1231.39 508.435 1237.41 506.909 1245.65 506.909V502.263C1236.93 502.263 1229.86 503.86 1224.72 507.346L1227.32 511.194ZM1245.65 506.909C1252.14 506.909 1257.92 508.317 1263.05 511.091L1265.26 507.003C1259.39 503.829 1252.84 502.263 1245.65 502.263V506.909ZM1263.12 511.125C1268.32 513.723 1272.44 517.759 1275.51 523.326L1279.58 521.087C1276.1 514.758 1271.3 510.021 1265.2 506.969L1263.12 511.125ZM1275.54 523.387C1278.69 528.73 1280.35 535.65 1280.35 544.288H1285C1285 535.082 1283.23 527.281 1279.54 521.026L1275.54 523.387ZM1280.35 544.288V617H1285V544.288H1280.35ZM1282.67 614.677H1254.57V619.323H1282.67V614.677ZM1256.89 617V546.295H1252.25V617H1256.89ZM1256.89 546.295C1256.89 539.831 1255.23 534.575 1251.49 531.007L1248.28 534.372C1250.78 536.752 1252.25 540.566 1252.25 546.295H1256.89ZM1251.53 531.047C1247.86 527.375 1242.81 525.682 1236.73 525.682V530.329C1241.94 530.329 1245.67 531.758 1248.24 534.332L1251.53 531.047ZM1236.73 525.682C1229.78 525.682 1224.1 527.973 1220.02 532.739L1223.55 535.763C1226.6 532.202 1230.88 530.329 1236.73 530.329V525.682ZM1220.01 532.744C1216.11 537.33 1214.33 543.75 1214.33 551.648H1218.97C1218.97 544.38 1220.62 539.201 1223.55 535.757L1220.01 532.744ZM1214.33 551.648V617H1218.97V551.648H1214.33ZM1216.65 614.677H1188.55V619.323H1216.65V614.677ZM1190.87 617V546.295H1186.22V617H1190.87ZM1190.87 546.295C1190.87 539.831 1189.21 534.575 1185.47 531.007L1182.26 534.372C1184.76 536.752 1186.22 540.566 1186.22 546.295H1190.87ZM1185.51 531.047C1181.84 527.375 1176.79 525.682 1170.7 525.682V530.329C1175.92 530.329 1179.65 531.758 1182.22 534.332L1185.51 531.047ZM1170.7 525.682C1163.76 525.682 1158.08 527.973 1154 532.739L1157.52 535.763C1160.58 532.202 1164.86 530.329 1170.7 530.329V525.682ZM1153.99 532.744C1150.09 537.33 1148.31 543.75 1148.31 551.648H1152.95C1152.95 544.38 1154.6 539.201 1157.53 535.757L1153.99 532.744ZM1148.31 551.648V617H1152.95V551.648H1148.31ZM1150.63 614.677H1122.53V619.323H1150.63V614.677Z" fill="#269E63" mask="url(#path-1-outside-1_21_415)"/>
<mask id="path-3-outside-2_21_415" maskUnits="userSpaceOnUse" x="645.293" y="458" width="122" height="165" fill="black">
<rect fill="white" x="645.293" y="458" width="122" height="165"/>
<path d="M714.373 620.123C704.411 620.123 696.753 618.413 691.4 614.993C686.047 611.573 682.106 607.781 679.579 603.617H675.564V617H647.906V460.87H676.01V519.084H680.025C681.66 516.407 683.816 513.88 686.493 511.5C689.318 509.121 692.961 507.188 697.422 505.701C702.032 504.066 707.682 503.248 714.373 503.248C723.295 503.248 731.548 505.478 739.131 509.939C746.715 514.251 752.811 520.645 757.421 529.121C762.03 537.597 764.335 547.857 764.335 559.901V563.47C764.335 575.514 762.03 585.774 757.421 594.25C752.811 602.725 746.715 609.193 739.131 613.654C731.548 617.967 723.295 620.123 714.373 620.123ZM705.898 595.588C714.522 595.588 721.734 592.837 727.533 587.335C733.332 581.685 736.232 573.507 736.232 562.8V560.57C736.232 549.864 733.332 541.76 727.533 536.258C721.882 530.608 714.671 527.783 705.898 527.783C697.273 527.783 690.062 530.608 684.262 536.258C678.463 541.76 675.564 549.864 675.564 560.57V562.8C675.564 573.507 678.463 581.685 684.262 587.335C690.062 592.837 697.273 595.588 705.898 595.588Z"/>
</mask>
<path d="M714.373 620.123C704.411 620.123 696.753 618.413 691.4 614.993C686.047 611.573 682.106 607.781 679.579 603.617H675.564V617H647.906V460.87H676.01V519.084H680.025C681.66 516.407 683.816 513.88 686.493 511.5C689.318 509.121 692.961 507.188 697.422 505.701C702.032 504.066 707.682 503.248 714.373 503.248C723.295 503.248 731.548 505.478 739.131 509.939C746.715 514.251 752.811 520.645 757.421 529.121C762.03 537.597 764.335 547.857 764.335 559.901V563.47C764.335 575.514 762.03 585.774 757.421 594.25C752.811 602.725 746.715 609.193 739.131 613.654C731.548 617.967 723.295 620.123 714.373 620.123ZM705.898 595.588C714.522 595.588 721.734 592.837 727.533 587.335C733.332 581.685 736.232 573.507 736.232 562.8V560.57C736.232 549.864 733.332 541.76 727.533 536.258C721.882 530.608 714.671 527.783 705.898 527.783C697.273 527.783 690.062 530.608 684.262 536.258C678.463 541.76 675.564 549.864 675.564 560.57V562.8C675.564 573.507 678.463 581.685 684.262 587.335C690.062 592.837 697.273 595.588 705.898 595.588Z" fill="white"/>
<path d="M691.4 614.993L690.149 616.951L691.4 614.993ZM679.579 603.617L681.565 602.412L680.886 601.294H679.579V603.617ZM675.564 603.617V601.294H673.24V603.617H675.564ZM675.564 617V619.323H677.887V617H675.564ZM647.906 617H645.583V619.323H647.906V617ZM647.906 460.87V458.546H645.583V460.87H647.906ZM676.01 460.87H678.333V458.546H676.01V460.87ZM676.01 519.084H673.686V521.407H676.01V519.084ZM680.025 519.084V521.407H681.328L682.007 520.295L680.025 519.084ZM686.493 511.5L684.996 509.723L684.973 509.743L684.949 509.764L686.493 511.5ZM697.422 505.701L698.157 507.905L698.178 507.898L698.199 507.891L697.422 505.701ZM739.131 509.939L737.953 511.942L737.968 511.95L737.983 511.959L739.131 509.939ZM757.421 529.121L759.462 528.011V528.011L757.421 529.121ZM757.421 594.25L759.462 595.36L757.421 594.25ZM739.131 613.654L740.28 615.674L740.294 615.666L740.309 615.657L739.131 613.654ZM727.533 587.335L729.132 589.021L729.143 589.01L729.154 588.999L727.533 587.335ZM727.533 536.258L725.89 537.901L725.912 537.923L725.934 537.944L727.533 536.258ZM684.262 536.258L685.862 537.944L685.873 537.933L685.884 537.922L684.262 536.258ZM684.262 587.335L682.641 588.999L682.652 589.01L682.663 589.021L684.262 587.335ZM714.373 617.799C704.623 617.799 697.474 616.116 692.651 613.035L690.149 616.951C696.032 620.709 704.199 622.446 714.373 622.446V617.799ZM692.651 613.035C687.509 609.75 683.861 606.194 681.565 602.412L677.593 604.823C680.352 609.368 684.584 613.395 690.149 616.951L692.651 613.035ZM679.579 601.294H675.564V605.941H679.579V601.294ZM673.24 603.617V617H677.887V603.617H673.24ZM675.564 614.677H647.906V619.323H675.564V614.677ZM650.23 617V460.87H645.583V617H650.23ZM647.906 463.193H676.01V458.546H647.906V463.193ZM673.686 460.87V519.084H678.333V460.87H673.686ZM676.01 521.407H680.025V516.761H676.01V521.407ZM682.007 520.295C683.508 517.84 685.508 515.485 688.036 513.237L684.949 509.764C682.125 512.274 679.813 514.975 678.042 517.872L682.007 520.295ZM687.989 513.278C690.538 511.132 693.902 509.324 698.157 507.905L696.687 503.497C692.021 505.053 688.098 507.111 684.996 509.723L687.989 513.278ZM698.199 507.891C702.486 506.37 707.856 505.571 714.373 505.571V500.924C707.508 500.924 701.577 501.762 696.645 503.512L698.199 507.891ZM714.373 505.571C722.887 505.571 730.732 507.694 737.953 511.942L740.309 507.937C732.363 503.263 723.703 500.924 714.373 500.924V505.571ZM737.983 511.959C745.151 516.035 750.954 522.094 755.38 530.231L759.462 528.011C754.668 519.196 748.279 512.468 740.28 507.919L737.983 511.959ZM755.38 530.231C759.763 538.291 762.012 548.15 762.012 559.901H766.658C766.658 547.563 764.297 536.902 759.462 528.011L755.38 530.231ZM762.012 559.901V563.47H766.658V559.901H762.012ZM762.012 563.47C762.012 575.221 759.763 585.079 755.38 593.14L759.462 595.36C764.297 586.469 766.658 575.807 766.658 563.47H762.012ZM755.38 593.14C750.951 601.282 745.139 607.425 737.953 611.652L740.309 615.657C748.291 610.962 754.671 604.169 759.462 595.36L755.38 593.14ZM737.983 611.635C730.757 615.743 722.902 617.799 714.373 617.799V622.446C723.688 622.446 732.338 620.19 740.28 615.674L737.983 611.635ZM705.898 597.911C715.066 597.911 722.865 594.966 729.132 589.021L725.934 585.65C720.602 590.708 713.978 593.264 705.898 593.264V597.911ZM729.154 588.999C735.533 582.784 738.555 573.923 738.555 562.8H733.908C733.908 573.09 731.131 580.586 725.911 585.671L729.154 588.999ZM738.555 562.8V560.57H733.908V562.8H738.555ZM738.555 560.57C738.555 549.451 735.535 540.647 729.132 534.573L725.934 537.944C731.129 542.873 733.908 550.276 733.908 560.57H738.555ZM729.176 534.615C723.045 528.484 715.221 525.459 705.898 525.459V530.106C714.121 530.106 720.72 532.731 725.89 537.901L729.176 534.615ZM705.898 525.459C696.711 525.459 688.904 528.492 682.641 534.594L685.884 537.922C691.219 532.724 697.835 530.106 705.898 530.106V525.459ZM682.663 534.573C676.261 540.647 673.24 549.451 673.24 560.57H677.887C677.887 550.276 680.666 542.873 685.862 537.944L682.663 534.573ZM673.24 560.57V562.8H677.887V560.57H673.24ZM673.24 562.8C673.24 573.923 676.262 582.784 682.641 588.999L685.884 585.671C680.665 580.586 677.887 573.09 677.887 562.8H673.24ZM682.663 589.021C688.93 594.966 696.73 597.911 705.898 597.911V593.264C697.817 593.264 691.193 590.708 685.862 585.65L682.663 589.021Z" fill="#269E63" mask="url(#path-3-outside-2_21_415)"/>
<path d="M642.531 448.192C632.604 444.733 623.079 441.16 625.673 433.715C628.267 426.269 638.417 423.037 648.344 426.495C658.271 429.954 664.216 438.793 661.622 446.238C659.029 453.683 652.458 451.65 642.531 448.192Z" fill="white"/>
<path d="M686.295 441.193C697.34 434.237 707.866 427.254 702.649 418.97C697.432 410.686 684.248 409.609 673.203 416.566C662.158 423.522 657.433 435.877 662.65 444.161C667.868 452.445 675.25 448.149 686.295 441.193Z" fill="white"/>
<path d="M641.587 457.408L648.967 485.288H674.114L683.407 457.408H641.587Z" fill="white"/>
<path d="M667.144 443.467C667.144 440.901 665.063 438.821 662.497 438.821C659.931 438.821 657.85 440.901 657.85 443.467V457.408H667.144V443.467Z" fill="white"/>
</svg>
