<?xml version="1.0" encoding="UTF-8"?>
<svg version="1.1" xmlns="http://www.w3.org/2000/svg" width="320" height="320">
<path d="M0 0 C3.2578125 -0.29296875 3.2578125 -0.29296875 7.125 -0.1875 C9.04699219 -0.14689453 9.04699219 -0.14689453 11.0078125 -0.10546875 C11.99523437 -0.07066406 12.98265625 -0.03585938 14 0 C15.66472173 4.53668441 16.13035344 7.25251556 15 12 C15.75925781 11.98839844 16.51851563 11.97679688 17.30078125 11.96484375 C18.29464844 11.95582031 19.28851563 11.94679688 20.3125 11.9375 C21.29863281 11.92589844 22.28476563 11.91429688 23.30078125 11.90234375 C26 12 26 12 29 13 C29 17.62 29 22.24 29 27 C33.62 27 38.24 27 43 27 C44.00496852 30.01490557 44.10335303 32.04181692 44.0625 35.1875 C44.05347656 36.08855469 44.04445313 36.98960938 44.03515625 37.91796875 C44.02355469 38.60503906 44.01195312 39.29210937 44 40 C44.85464844 40.06058594 45.70929688 40.12117188 46.58984375 40.18359375 C47.69457031 40.26738281 48.79929687 40.35117188 49.9375 40.4375 C51.03964844 40.51871094 52.14179688 40.59992188 53.27734375 40.68359375 C56 41 56 41 57 42 C57.08748207 43.92667507 57.10697334 45.85651861 57.09765625 47.78515625 C57.09282227 49.53989258 57.09282227 49.53989258 57.08789062 51.33007812 C57.07532227 53.17762695 57.07532227 53.17762695 57.0625 55.0625 C57.05798828 56.29806641 57.05347656 57.53363281 57.04882812 58.80664062 C57.03699618 61.87111413 57.01906008 64.93556293 57 68 C61.29 68.33 65.58 68.66 70 69 C71.00496852 72.01490557 71.10335303 74.04181692 71.0625 77.1875 C71.05347656 78.08855469 71.04445312 78.98960937 71.03515625 79.91796875 C71.01775391 80.94857422 71.01775391 80.94857422 71 82 C71.92683594 82.06058594 72.85367188 82.12117188 73.80859375 82.18359375 C75.60490234 82.30927734 75.60490234 82.30927734 77.4375 82.4375 C79.22994141 82.55931641 79.22994141 82.55931641 81.05859375 82.68359375 C84 83 84 83 85 84 C85.10410433 85.73836291 85.13853527 87.48094777 85.14526367 89.22241211 C85.15164352 90.3370433 85.15802338 91.4516745 85.16459656 92.6000824 C85.16626579 94.42032677 85.16626579 94.42032677 85.16796875 96.27734375 C85.17129715 97.51416397 85.17462555 98.75098419 85.17805481 100.02528381 C85.1831293 102.64730455 85.18546298 105.26933178 85.18530273 107.89135742 C85.18522129 110.58706342 85.19218657 113.28260019 85.20581055 115.97827148 C85.22405346 119.84884898 85.22903586 123.71922767 85.23046875 127.58984375 C85.23765427 128.80131577 85.24483978 130.01278778 85.25224304 131.26097107 C85.24916641 132.37875443 85.24608978 133.49653778 85.24291992 134.64819336 C85.24434494 135.63556992 85.24576996 136.62294647 85.24723816 137.64024353 C85 140 85 140 83 142 C80.1796875 142.1953125 80.1796875 142.1953125 76.875 142.125 C75.77929688 142.10695312 74.68359375 142.08890625 73.5546875 142.0703125 C72.71164063 142.04710937 71.86859375 142.02390625 71 142 C71.01160156 142.85464844 71.02320313 143.70929688 71.03515625 144.58984375 C71.04417969 145.69457031 71.05320313 146.79929688 71.0625 147.9375 C71.07410156 149.03964844 71.08570313 150.14179688 71.09765625 151.27734375 C71 154 71 154 70 155 C65.66469082 155.14393457 61.33842269 155.04212061 57 155 C57.495 162.425 57.495 162.425 58 170 C57.34 170 56.68 170 56 170 C56.495 175.445 56.495 175.445 57 181 C53.57501141 182.14166286 50.94492401 182.12703564 47.33227539 182.12939453 C46.65860931 182.13114685 45.98494324 182.13289917 45.29086304 182.13470459 C43.05976799 182.13911058 40.82875214 182.13618654 38.59765625 182.1328125 C37.03885381 182.13348661 35.48005147 182.13445753 33.92124939 182.13571167 C30.64695235 182.13718753 27.37268255 182.13504028 24.09838867 182.13037109 C19.93286712 182.12471636 15.76741061 182.12792625 11.60189152 182.13394356 C8.37680081 182.13758867 5.15172504 182.13639188 1.92663383 182.13381577 C0.39308095 182.13315515 -1.14047336 182.13394416 -2.67402458 182.13629532 C-11.50223467 182.14684643 -20.20440227 181.87146819 -29 181 C-29 177.37 -29 173.74 -29 170 C-33.29 170 -37.58 170 -42 170 C-43.36839363 167.26321275 -43.21634818 164.95735576 -43.31640625 161.8984375 C-43.35830078 160.68671875 -43.40019531 159.475 -43.44335938 158.2265625 C-43.48267578 156.95554688 -43.52199219 155.68453125 -43.5625 154.375 C-43.60568359 153.09625 -43.64886719 151.8175 -43.69335938 150.5 C-43.79969886 147.33344652 -43.90172833 144.16681247 -44 141 C-44.84304687 141.03480469 -45.68609375 141.06960937 -46.5546875 141.10546875 C-47.65039062 141.13253906 -48.74609375 141.15960938 -49.875 141.1875 C-50.96554688 141.22230469 -52.05609375 141.25710937 -53.1796875 141.29296875 C-54.11039062 141.19628906 -55.04109375 141.09960938 -56 141 C-58.2380858 137.6428713 -58.25650054 136.48862636 -58.265625 132.5625 C-58.26820312 131.50289062 -58.27078125 130.44328125 -58.2734375 129.3515625 C-58.26570313 128.24554688 -58.25796875 127.13953125 -58.25 126 C-58.25773437 124.89398438 -58.26546875 123.78796875 -58.2734375 122.6484375 C-58.27085938 121.58882813 -58.26828125 120.52921875 -58.265625 119.4375 C-58.26336914 118.46683594 -58.26111328 117.49617188 -58.25878906 116.49609375 C-58 114 -58 114 -56 111 C-52.9609375 110.70703125 -52.9609375 110.70703125 -49.375 110.8125 C-48.18648437 110.83957031 -46.99796875 110.86664063 -45.7734375 110.89453125 C-44.85820313 110.92933594 -43.94296875 110.96414062 -43 111 C-43.03480469 110.08476562 -43.06960937 109.16953125 -43.10546875 108.2265625 C-43.14607422 106.44378906 -43.14607422 106.44378906 -43.1875 104.625 C-43.23970703 102.84996094 -43.23970703 102.84996094 -43.29296875 101.0390625 C-43.19628906 100.03617187 -43.09960938 99.03328125 -43 98 C-39.54785147 95.69856764 -38.76520676 95.86166146 -34.8125 96.375 C-33.91144531 96.48585938 -33.01039062 96.59671875 -32.08203125 96.7109375 C-31.39496094 96.80632812 -30.70789063 96.90171875 -30 97 C-30.00523682 96.18732666 -30.01047363 95.37465332 -30.01586914 94.53735352 C-30.03656994 90.87907678 -30.04963803 87.22081233 -30.0625 83.5625 C-30.07087891 82.28310547 -30.07925781 81.00371094 -30.08789062 79.68554688 C-30.09111328 78.47060547 -30.09433594 77.25566406 -30.09765625 76.00390625 C-30.10551147 74.31503296 -30.10551147 74.31503296 -30.11352539 72.59204102 C-30 70 -30 70 -29 69 C-26.86006029 68.73796657 -24.71211406 68.53981159 -22.5625 68.375 C-21.38816406 68.27960938 -20.21382812 68.18421875 -19.00390625 68.0859375 C-16 68 -16 68 -14 69 C-12.65058555 73.45306768 -13 77.15445669 -13 82 C-4.75 82 3.5 82 12 82 C12.33 59.89 12.66 37.78 13 15 C8.71 15 4.42 15 0 15 C-2.42105263 7.73684211 -2.42105263 7.73684211 -2 3 C-1.34 2.01 -0.68 1.02 0 0 Z " fill="#3CBFFD" transform="translate(139,69)"/>
<path d="M0 0 C3.2578125 -0.29296875 3.2578125 -0.29296875 7.125 -0.1875 C9.04699219 -0.14689453 9.04699219 -0.14689453 11.0078125 -0.10546875 C11.99523437 -0.07066406 12.98265625 -0.03585938 14 0 C15.66472173 4.53668441 16.13035344 7.25251556 15 12 C15.75925781 11.98839844 16.51851563 11.97679688 17.30078125 11.96484375 C18.29464844 11.95582031 19.28851563 11.94679688 20.3125 11.9375 C21.29863281 11.92589844 22.28476563 11.91429688 23.30078125 11.90234375 C26 12 26 12 29 13 C29 17.62 29 22.24 29 27 C33.62 27 38.24 27 43 27 C44.00496852 30.01490557 44.10335303 32.04181692 44.0625 35.1875 C44.05347656 36.08855469 44.04445313 36.98960938 44.03515625 37.91796875 C44.02355469 38.60503906 44.01195312 39.29210937 44 40 C44.85464844 40.06058594 45.70929688 40.12117188 46.58984375 40.18359375 C47.69457031 40.26738281 48.79929687 40.35117188 49.9375 40.4375 C51.03964844 40.51871094 52.14179688 40.59992188 53.27734375 40.68359375 C56 41 56 41 57 42 C57.08748207 43.92667507 57.10697334 45.85651861 57.09765625 47.78515625 C57.09282227 49.53989258 57.09282227 49.53989258 57.08789062 51.33007812 C57.07532227 53.17762695 57.07532227 53.17762695 57.0625 55.0625 C57.05798828 56.29806641 57.05347656 57.53363281 57.04882812 58.80664062 C57.03699618 61.87111413 57.01906008 64.93556293 57 68 C61.29 68.33 65.58 68.66 70 69 C71.00496852 72.01490557 71.10335303 74.04181692 71.0625 77.1875 C71.05347656 78.08855469 71.04445312 78.98960937 71.03515625 79.91796875 C71.01775391 80.94857422 71.01775391 80.94857422 71 82 C71.92683594 82.06058594 72.85367188 82.12117188 73.80859375 82.18359375 C75.60490234 82.30927734 75.60490234 82.30927734 77.4375 82.4375 C79.22994141 82.55931641 79.22994141 82.55931641 81.05859375 82.68359375 C84 83 84 83 85 84 C85.10410433 85.73836291 85.13853527 87.48094777 85.14526367 89.22241211 C85.15164352 90.3370433 85.15802338 91.4516745 85.16459656 92.6000824 C85.16626579 94.42032677 85.16626579 94.42032677 85.16796875 96.27734375 C85.17129715 97.51416397 85.17462555 98.75098419 85.17805481 100.02528381 C85.1831293 102.64730455 85.18546298 105.26933178 85.18530273 107.89135742 C85.18522129 110.58706342 85.19218657 113.28260019 85.20581055 115.97827148 C85.22405346 119.84884898 85.22903586 123.71922767 85.23046875 127.58984375 C85.23765427 128.80131577 85.24483978 130.01278778 85.25224304 131.26097107 C85.24916641 132.37875443 85.24608978 133.49653778 85.24291992 134.64819336 C85.24434494 135.63556992 85.24576996 136.62294647 85.24723816 137.64024353 C85 140 85 140 83 142 C80.1796875 142.1953125 80.1796875 142.1953125 76.875 142.125 C75.77929688 142.10695312 74.68359375 142.08890625 73.5546875 142.0703125 C72.71164063 142.04710937 71.86859375 142.02390625 71 142 C71.01160156 142.85464844 71.02320313 143.70929688 71.03515625 144.58984375 C71.04417969 145.69457031 71.05320313 146.79929688 71.0625 147.9375 C71.07410156 149.03964844 71.08570313 150.14179688 71.09765625 151.27734375 C71 154 71 154 70 155 C65.66469082 155.14393457 61.33842269 155.04212061 57 155 C57.495 162.425 57.495 162.425 58 170 C57.34 170 56.68 170 56 170 C56.495 175.445 56.495 175.445 57 181 C54 182 54 182 42 181 C42 167.47 42 153.94 42 140 C51.24 140 60.48 140 70 140 C70 121.52 70 103.04 70 84 C65.38 84 60.76 84 56 84 C56 79.38 56 74.76 56 70 C51.38 70 46.76 70 42 70 C42 60.76 42 51.52 42 42 C37.38 42 32.76 42 28 42 C28 55.86 28 69.72 28 84 C23.38 84 18.76 84 14 84 C14 88.62 14 93.24 14 98 C0.14 98 -13.72 98 -28 98 C-28 102.62 -28 107.24 -28 112 C-32.62 112 -37.24 112 -42 112 C-42 121.24 -42 130.48 -42 140 C-37.38 140 -32.76 140 -28 140 C-28 149.24 -28 158.48 -28 168 C-23.38 168 -18.76 168 -14 168 C-14 172.29 -14 176.58 -14 181 C-17.42689636 182.14229879 -19.61102218 181.90861076 -23.1875 181.5625 C-24.27417969 181.46066406 -25.36085937 181.35882813 -26.48046875 181.25390625 C-27.31191406 181.17011719 -28.14335938 181.08632812 -29 181 C-29 177.37 -29 173.74 -29 170 C-33.29 170 -37.58 170 -42 170 C-43.36839363 167.26321275 -43.21634818 164.95735576 -43.31640625 161.8984375 C-43.35830078 160.68671875 -43.40019531 159.475 -43.44335938 158.2265625 C-43.48267578 156.95554688 -43.52199219 155.68453125 -43.5625 154.375 C-43.60568359 153.09625 -43.64886719 151.8175 -43.69335938 150.5 C-43.79969886 147.33344652 -43.90172833 144.16681247 -44 141 C-44.84304687 141.03480469 -45.68609375 141.06960937 -46.5546875 141.10546875 C-47.65039062 141.13253906 -48.74609375 141.15960938 -49.875 141.1875 C-50.96554688 141.22230469 -52.05609375 141.25710937 -53.1796875 141.29296875 C-54.11039062 141.19628906 -55.04109375 141.09960938 -56 141 C-58.2380858 137.6428713 -58.25650054 136.48862636 -58.265625 132.5625 C-58.26820312 131.50289062 -58.27078125 130.44328125 -58.2734375 129.3515625 C-58.26570313 128.24554688 -58.25796875 127.13953125 -58.25 126 C-58.25773437 124.89398438 -58.26546875 123.78796875 -58.2734375 122.6484375 C-58.27085938 121.58882813 -58.26828125 120.52921875 -58.265625 119.4375 C-58.26336914 118.46683594 -58.26111328 117.49617188 -58.25878906 116.49609375 C-58 114 -58 114 -56 111 C-52.9609375 110.70703125 -52.9609375 110.70703125 -49.375 110.8125 C-48.18648437 110.83957031 -46.99796875 110.86664063 -45.7734375 110.89453125 C-44.85820313 110.92933594 -43.94296875 110.96414062 -43 111 C-43.03480469 110.08476562 -43.06960937 109.16953125 -43.10546875 108.2265625 C-43.14607422 106.44378906 -43.14607422 106.44378906 -43.1875 104.625 C-43.23970703 102.84996094 -43.23970703 102.84996094 -43.29296875 101.0390625 C-43.19628906 100.03617187 -43.09960938 99.03328125 -43 98 C-39.54785147 95.69856764 -38.76520676 95.86166146 -34.8125 96.375 C-33.91144531 96.48585938 -33.01039062 96.59671875 -32.08203125 96.7109375 C-31.39496094 96.80632812 -30.70789063 96.90171875 -30 97 C-30.00523682 96.18732666 -30.01047363 95.37465332 -30.01586914 94.53735352 C-30.03656994 90.87907678 -30.04963803 87.22081233 -30.0625 83.5625 C-30.07087891 82.28310547 -30.07925781 81.00371094 -30.08789062 79.68554688 C-30.09111328 78.47060547 -30.09433594 77.25566406 -30.09765625 76.00390625 C-30.10551147 74.31503296 -30.10551147 74.31503296 -30.11352539 72.59204102 C-30 70 -30 70 -29 69 C-26.86006029 68.73796657 -24.71211406 68.53981159 -22.5625 68.375 C-21.38816406 68.27960938 -20.21382812 68.18421875 -19.00390625 68.0859375 C-16 68 -16 68 -14 69 C-12.65058555 73.45306768 -13 77.15445669 -13 82 C-4.75 82 3.5 82 12 82 C12.33 59.89 12.66 37.78 13 15 C8.71 15 4.42 15 0 15 C-2.42105263 7.73684211 -2.42105263 7.73684211 -2 3 C-1.34 2.01 -0.68 1.02 0 0 Z " fill="#155589" transform="translate(139,69)"/>
<path d="M0 0 C4.62 0 9.24 0 14 0 C14 9.24 14 18.48 14 28 C9.38 28 4.76 28 0 28 C0 32.62 0 37.24 0 42 C-4.62 42 -9.24 42 -14 42 C-14 37.38 -14 32.76 -14 28 C-18.62 28 -23.24 28 -28 28 C-28 46.48 -28 64.96 -28 84 C-32.62 84 -37.24 84 -42 84 C-42 74.76 -42 65.52 -42 56 C-46.62 56 -51.24 56 -56 56 C-56 46.76 -56 37.52 -56 28 C-51.38 28 -46.76 28 -42 28 C-42 23.38 -42 18.76 -42 14 C-28.14 14 -14.28 14 0 14 C0 9.38 0 4.76 0 0 Z " fill="#3A79FB" transform="translate(153,153)"/>
<path d="M0 0 C4.62 0 9.24 0 14 0 C14 9.24 14 18.48 14 28 C18.62 28 23.24 28 28 28 C28 32.62 28 37.24 28 42 C32.62 42 37.24 42 42 42 C42 60.48 42 78.96 42 98 C37.38 98 32.76 98 28 98 C28 84.14 28 70.28 28 56 C23.38 56 18.76 56 14 56 C14 51.38 14 46.76 14 42 C9.38 42 4.76 42 0 42 C0 28.14 0 14.28 0 0 Z " fill="#3B79F9" transform="translate(167,111)"/>
<path d="M0 0 C1.65 1.32 3.3 2.64 5 4 C5.33 3.34 5.66 2.68 6 2 C6 2.66 6 3.32 6 4 C8.27058485 5.13529242 10.6429774 6.05719096 13 7 C13 22.84 13 38.68 13 55 C9.7 55 6.4 55 3 55 C3 55.66 3 56.32 3 57 C2.01 57.495 2.01 57.495 1 58 C1.01160156 58.85464844 1.02320313 59.70929688 1.03515625 60.58984375 C1.04417969 61.69457031 1.05320313 62.79929688 1.0625 63.9375 C1.07410156 65.03964844 1.08570313 66.14179688 1.09765625 67.27734375 C1 70 1 70 0 71 C-4.33530918 71.14393457 -8.66157731 71.04212061 -13 71 C-12.67 75.95 -12.34 80.9 -12 86 C-12.66 86 -13.32 86 -14 86 C-13.67 89.63 -13.34 93.26 -13 97 C-16 98 -16 98 -28 97 C-28 83.47 -28 69.94 -28 56 C-18.76 56 -9.52 56 0 56 C0 37.52 0 19.04 0 0 Z " fill="#15558A" transform="translate(209,153)"/>
<path d="M0 0 C3.6815625 -0.0309375 3.6815625 -0.0309375 7.4375 -0.0625 C8.21150146 -0.071604 8.98550293 -0.08070801 9.78295898 -0.09008789 C11.52221717 -0.09724913 13.26145304 -0.05024702 15 0 C16 1 16 1 16.11352539 3.50024414 C16.10828857 4.58426514 16.10305176 5.66828613 16.09765625 6.78515625 C16.09443359 7.95498047 16.09121094 9.12480469 16.08789062 10.33007812 C16.07951172 11.56177734 16.07113281 12.79347656 16.0625 14.0625 C16.05798828 15.29806641 16.05347656 16.53363281 16.04882812 17.80664062 C16.03699618 20.87111413 16.01906008 23.93556293 16 27 C20.29 27.33 24.58 27.66 29 28 C30.00496852 31.01490557 30.10335303 33.04181692 30.0625 36.1875 C30.05347656 37.08855469 30.04445312 37.98960937 30.03515625 38.91796875 C30.02355469 39.60503906 30.01195312 40.29210937 30 41 C31.39025391 41.09087891 31.39025391 41.09087891 32.80859375 41.18359375 C34.00613281 41.26738281 35.20367187 41.35117188 36.4375 41.4375 C37.63246094 41.51871094 38.82742187 41.59992188 40.05859375 41.68359375 C43 42 43 42 44 43 C44.10410433 44.73836291 44.13853527 46.48094777 44.14526367 48.22241211 C44.15164352 49.3370433 44.15802338 50.4516745 44.16459656 51.6000824 C44.16570938 52.81357864 44.1668222 54.02707489 44.16796875 55.27734375 C44.17296135 57.13257408 44.17296135 57.13257408 44.17805481 59.02528381 C44.1831293 61.64730455 44.18546298 64.26933178 44.18530273 66.89135742 C44.18522129 69.58706342 44.19218657 72.28260019 44.20581055 74.97827148 C44.22405346 78.84884898 44.22903586 82.71922767 44.23046875 86.58984375 C44.23765427 87.80131577 44.24483978 89.01278778 44.25224304 90.26097107 C44.24916641 91.37875443 44.24608978 92.49653778 44.24291992 93.64819336 C44.24434494 94.63556992 44.24576996 95.62294647 44.24723816 96.64024353 C44 99 44 99 42 101 C39.6171875 100.9765625 39.6171875 100.9765625 36.875 100.625 C35.96492188 100.51414062 35.05484375 100.40328125 34.1171875 100.2890625 C33.41851562 100.19367188 32.71984375 100.09828125 32 100 C32 99.34 32 98.68 32 98 C35.3 98 38.6 98 42 98 C41.67 82.16 41.34 66.32 41 50 C39.35 49.67 37.7 49.34 36 49 C35.34 48.34 34.68 47.68 34 47 C32.68252676 46.30251417 31.35085807 45.63040043 30 45 C30 44.34 30 43.68 30 43 C25.05 43 20.1 43 15 43 C15 38.38 15 33.76 15 29 C10.38 29 5.76 29 1 29 C0.67 19.43 0.34 9.86 0 0 Z " fill="#155587" transform="translate(180,110)"/>
<path d="M0 0 C0.66 0 1.32 0 2 0 C2 13.86 2 27.72 2 42 C-2.62 42 -7.24 42 -12 42 C-12 46.62 -12 51.24 -12 56 C-25.53 56 -39.06 56 -53 56 C-53 47.75 -53 39.5 -53 31 C-49.7 30.67 -46.4 30.34 -43 30 C-41.12815629 33.74368742 -40.76000233 34.8400791 -40.875 38.75 C-40.89304687 39.54921875 -40.91109375 40.3484375 -40.9296875 41.171875 C-40.95289062 41.77515625 -40.97609375 42.3784375 -41 43 C-40.01 43 -39.02 43 -38 43 C-37.67 42.01 -37.34 41.02 -37 40 C-35.85168701 40.00785522 -35.85168701 40.00785522 -34.68017578 40.01586914 C-31.16179243 40.03684667 -27.64342232 40.04972565 -24.125 40.0625 C-22.31902344 40.07506836 -22.31902344 40.07506836 -20.4765625 40.08789062 C-19.290625 40.09111328 -18.1046875 40.09433594 -16.8828125 40.09765625 C-15.80402832 40.10289307 -14.72524414 40.10812988 -13.61376953 40.11352539 C-9.06293671 39.97056246 -4.53048177 39.45304818 0 39 C0 26.13 0 13.26 0 0 Z " fill="#155689" transform="translate(165,111)"/>
<path d="M0 0 C3.63 0 7.26 0 11 0 C12.27861615 2.55723229 12.11336609 4.36737102 12.09765625 7.2265625 C12.09443359 8.2578125 12.09121094 9.2890625 12.08789062 10.3515625 C12.07532227 11.97191406 12.07532227 11.97191406 12.0625 13.625 C12.05798828 14.71296875 12.05347656 15.8009375 12.04882812 16.921875 C12.03701776 19.61463789 12.02054778 22.30729188 12 25 C8.24725989 25.81192163 4.84545686 26.08942923 1 26 C-0.50788347 29.42700788 -1.91823965 32.74510009 -3.0625 36.3125 C-4 39 -4 39 -6 41 C-7.65 40.67 -9.3 40.34 -11 40 C-11.33 36.04 -11.66 32.08 -12 28 C-15.59078969 26.8030701 -18.96636674 26.59013724 -22.72265625 26.28125 C-25 26 -25 26 -27 25 C-27 21.37 -27 17.74 -27 14 C-18.09 14 -9.18 14 0 14 C0 9.38 0 4.76 0 0 Z " fill="#3B79FA" transform="translate(153,153)"/>
<path d="M0 0 C4.62 0 9.24 0 14 0 C14.66 9.9 15.32 19.8 16 30 C15.34 30 14.68 30 14 30 C14.33 33.63 14.66 37.26 15 41 C12 42 12 42 0 41 C0 27.47 0 13.94 0 0 Z " fill="#3B79FB" transform="translate(181,209)"/>
<path d="M0 0 C4.62 0 9.24 0 14 0 C14 8.91 14 17.82 14 27 C4.76 27 -4.48 27 -14 27 C-14 22.71 -14 18.42 -14 14 C-9.38 14 -4.76 14 0 14 C0 9.38 0 4.76 0 0 Z " fill="#8BFAFC" transform="translate(153,223)"/>
<path d="M0 0 C0.99 5.61 1.98 11.22 3 17 C1.68 16.67 0.36 16.34 -1 16 C-1.04898438 15.38511719 -1.09796875 14.77023438 -1.1484375 14.13671875 C-1.22320312 13.32847656 -1.29796875 12.52023438 -1.375 11.6875 C-1.47941406 10.48673828 -1.47941406 10.48673828 -1.5859375 9.26171875 C-1.89564426 6.72775559 -1.89564426 6.72775559 -4 4 C-6.20725073 3.63637182 -6.20725073 3.63637182 -8.625 3.8125 C-9.44226563 3.83957031 -10.25953125 3.86664063 -11.1015625 3.89453125 C-11.72804687 3.92933594 -12.35453125 3.96414062 -13 4 C-12.99214478 5.02601318 -12.99214478 5.02601318 -12.98413086 6.07275391 C-12.81727622 31.19388222 -12.81727622 31.19388222 -14 43 C-16.9996492 43.19654959 -19.99935101 43.38246106 -23 43.5625 C-24.25876953 43.64661133 -24.25876953 43.64661133 -25.54296875 43.73242188 C-26.37441406 43.78076172 -27.20585938 43.82910156 -28.0625 43.87890625 C-28.81660156 43.9260376 -29.57070312 43.97316895 -30.34765625 44.02172852 C-33.91461374 43.99250731 -37.46046823 43.44244147 -41 43 C-41 51.91 -41 60.82 -41 70 C-37.37 70 -33.74 70 -30 70 C-30.495 70.99 -30.495 70.99 -31 72 C-32.79093191 72.08086147 -34.58289628 72.13912702 -36.375 72.1875 C-37.87160156 72.23970703 -37.87160156 72.23970703 -39.3984375 72.29296875 C-40.25695312 72.19628906 -41.11546875 72.09960938 -42 72 C-44.2380858 68.6428713 -44.25650054 67.48862636 -44.265625 63.5625 C-44.26820312 62.50289062 -44.27078125 61.44328125 -44.2734375 60.3515625 C-44.26570313 59.24554688 -44.25796875 58.13953125 -44.25 57 C-44.25773437 55.89398438 -44.26546875 54.78796875 -44.2734375 53.6484375 C-44.27085938 52.58882812 -44.26828125 51.52921875 -44.265625 50.4375 C-44.26336914 49.46683594 -44.26111328 48.49617188 -44.25878906 47.49609375 C-44 45 -44 45 -42 42 C-38.9609375 41.70703125 -38.9609375 41.70703125 -35.375 41.8125 C-34.18648437 41.83957031 -32.99796875 41.86664063 -31.7734375 41.89453125 C-30.85820313 41.92933594 -29.94296875 41.96414062 -29 42 C-29.03480469 41.08476562 -29.06960937 40.16953125 -29.10546875 39.2265625 C-29.14607422 37.44378906 -29.14607422 37.44378906 -29.1875 35.625 C-29.23970703 33.84996094 -29.23970703 33.84996094 -29.29296875 32.0390625 C-29.19628906 31.03617188 -29.09960938 30.03328125 -29 29 C-25.54785147 26.69856764 -24.76520676 26.86166146 -20.8125 27.375 C-19.91144531 27.48585937 -19.01039062 27.59671875 -18.08203125 27.7109375 C-17.39496094 27.80632812 -16.70789063 27.90171875 -16 28 C-16.00785522 26.78098999 -16.00785522 26.78098999 -16.01586914 25.53735352 C-16.03656994 21.87907678 -16.04963803 18.22081233 -16.0625 14.5625 C-16.07087891 13.28310547 -16.07925781 12.00371094 -16.08789062 10.68554688 C-16.09111328 9.47060547 -16.09433594 8.25566406 -16.09765625 7.00390625 C-16.10551147 5.31503296 -16.10551147 5.31503296 -16.11352539 3.59204102 C-16 1 -16 1 -15 0 C-13.04814727 -0.26218917 -11.08748327 -0.46028318 -9.125 -0.625 C-8.05507812 -0.72039062 -6.98515625 -0.81578125 -5.8828125 -0.9140625 C-3 -1 -3 -1 0 0 Z " fill="#16475E" transform="translate(125,138)"/>
<path d="M0 0 C3.2578125 -0.29296875 3.2578125 -0.29296875 7.125 -0.1875 C9.04699219 -0.14689453 9.04699219 -0.14689453 11.0078125 -0.10546875 C11.99523437 -0.07066406 12.98265625 -0.03585938 14 0 C15.66472173 4.53668441 16.13035344 7.25251556 15 12 C15.77085937 11.96519531 16.54171875 11.93039063 17.3359375 11.89453125 C18.33882812 11.86746094 19.34171875 11.84039062 20.375 11.8125 C21.87160156 11.76029297 21.87160156 11.76029297 23.3984375 11.70703125 C24.25695312 11.80371094 25.11546875 11.90039062 26 12 C26.99 13.485 26.99 13.485 28 15 C23.13112025 16.90005063 20.57710066 17 15 17 C15 38.78 15 60.56 15 83 C13.515 82.505 13.515 82.505 12 82 C12.33 59.89 12.66 37.78 13 15 C8.71 15 4.42 15 0 15 C-2.42105263 7.73684211 -2.42105263 7.73684211 -2 3 C-1.34 2.01 -0.68 1.02 0 0 Z " fill="#1D5270" transform="translate(139,69)"/>
<path d="M0 0 C1.76537109 0.13535156 1.76537109 0.13535156 3.56640625 0.2734375 C6.4375 0.625 6.4375 0.625 7.4375 1.625 C7.51021741 3.97813555 7.52120868 6.33333668 7.5 8.6875 C7.49097656 9.97785156 7.48195312 11.26820312 7.47265625 12.59765625 C7.46105469 13.59667969 7.44945312 14.59570312 7.4375 15.625 C4.57116205 17.05816898 2.06514499 16.75700361 -1.125 16.75 C-2.89037109 16.75386719 -2.89037109 16.75386719 -4.69140625 16.7578125 C-7.5625 16.625 -7.5625 16.625 -8.5625 15.625 C-8.63563567 13.09450598 -8.65497527 10.59195163 -8.625 8.0625 C-8.62048828 7.35158203 -8.61597656 6.64066406 -8.61132812 5.90820312 C-8.59950864 4.14709987 -8.58157263 2.38603964 -8.5625 0.625 C-5.63604643 -0.83822678 -3.23644481 -0.26289453 0 0 Z " fill="#1B4A64" transform="translate(216.5625,109.375)"/>
<path d="M0 0 C1.27875 0.00257812 2.5575 0.00515625 3.875 0.0078125 C5.15375 0.00523438 6.4325 0.00265625 7.75 0 C10.875 0.1328125 10.875 0.1328125 11.875 1.1328125 C11.97409302 3.46441305 12.00470504 5.79911192 12 8.1328125 C12.00386719 10.0509375 12.00386719 10.0509375 12.0078125 12.0078125 C11.875 15.1328125 11.875 15.1328125 10.875 16.1328125 C8.73105481 16.2319882 6.58373268 16.262514 4.4375 16.2578125 C3.26316406 16.26039062 2.08882813 16.26296875 0.87890625 16.265625 C-2.125 16.1328125 -2.125 16.1328125 -4.125 15.1328125 C-4.15185412 12.82037458 -4.17132841 10.5078498 -4.1875 8.1953125 C-4.19910156 6.90753906 -4.21070312 5.61976562 -4.22265625 4.29296875 C-4.09537209 0.17405331 -4.09537209 0.17405331 0 0 Z " fill="#1D4B62" transform="translate(100.125,109.8671875)"/>
<path d="M0 0 C0.99 0 1.98 0 3 0 C3 9.24 3 18.48 3 28 C-1.62 28 -6.24 28 -11 28 C-11 32.62 -11 37.24 -11 42 C-15.62 42 -20.24 42 -25 42 C-25 37.38 -25 32.76 -25 28 C-29.62 28 -34.24 28 -39 28 C-39 23.38 -39 18.76 -39 14 C-38.67 14 -38.34 14 -38 14 C-38 17.63 -38 21.26 -38 25 C-36.51886719 25.07347656 -36.51886719 25.07347656 -35.0078125 25.1484375 C-33.72648438 25.22320312 -32.44515625 25.29796875 -31.125 25.375 C-29.84882813 25.44460937 -28.57265625 25.51421875 -27.2578125 25.5859375 C-24 26 -24 26 -22 28 C-21.5859375 30.8203125 -21.5859375 30.8203125 -21.375 34.125 C-21.30023438 35.22070312 -21.22546875 36.31640625 -21.1484375 37.4453125 C-21.09945312 38.28835937 -21.05046875 39.13140625 -21 40 C-18.525 39.505 -18.525 39.505 -16 39 C-15.731875 38.154375 -15.46375 37.30875 -15.1875 36.4375 C-11.88888889 26.88888889 -11.88888889 26.88888889 -10 25 C-6.7 25 -3.4 25 0 25 C0 16.75 0 8.5 0 0 Z " fill="#2D87EE" transform="translate(164,153)"/>
<path d="M0 0 C0.66 0 1.32 0 2 0 C2 13.86 2 27.72 2 42 C-2.62 42 -7.24 42 -12 42 C-12 46.62 -12 51.24 -12 56 C-25.53 56 -39.06 56 -53 56 C-53 55.67 -53 55.34 -53 55 C-40.79 54.34 -28.58 53.68 -16 53 C-15.34 49.04 -14.68 45.08 -14 41 C-9.03075968 39.81331575 -5.14709808 39 0 39 C0 26.13 0 13.26 0 0 Z " fill="#1555A6" transform="translate(165,111)"/>
<path d="M0 0 C4.62 0 9.24 0 14 0 C14 4.62 14 9.24 14 14 C9.38 14 4.76 14 0 14 C0 9.38 0 4.76 0 0 Z " fill="#88FBFE" transform="translate(139,209)"/>
<path d="M0 0 C4.62 0 9.24 0 14 0 C14 4.62 14 9.24 14 14 C9.38 14 4.76 14 0 14 C0 9.38 0 4.76 0 0 Z " fill="#2F85EF" transform="translate(167,181)"/>
<path d="M0 0 C4.62 0 9.24 0 14 0 C14 4.62 14 9.24 14 14 C9.38 14 4.76 14 0 14 C0 9.38 0 4.76 0 0 Z " fill="#42BAFB" transform="translate(111,167)"/>
<path d="M0 0 C4.95 0 9.9 0 15 0 C15.33 0.66 15.66 1.32 16 2 C15.34 2 14.68 2 14 2 C14.33 5.63 14.66 9.26 15 13 C10.04380087 14.65206638 5.1596656 13.49932248 0 13 C0 8.71 0 4.42 0 0 Z " fill="#16568B" transform="translate(181,237)"/>
<path d="M0 0 C4.62 0 9.24 0 14 0 C14 18.48 14 36.96 14 56 C9.38 56 4.76 56 0 56 C0 42.47 0 28.94 0 15 C0.33 15 0.66 15 1 15 C1 27.87 1 40.74 1 54 C4.63 54 8.26 54 12 54 C12 36.51 12 19.02 12 1 C8.04 1 4.08 1 0 1 C0 0.67 0 0.34 0 0 Z " fill="#387EE2" transform="translate(195,153)"/>
<path d="M0 0 C4.62 0 9.24 0 14 0 C14 4.62 14 9.24 14 14 C9.38 14 4.76 14 0 14 C0 18.29 0 22.58 0 27 C-4.62 27.33 -9.24 27.66 -14 28 C-14 23.71 -14 19.42 -14 15 C-13.01 15.33 -12.02 15.66 -11 16 C-10.79913557 19.71599191 -10.8480563 20.77208445 -13 24 C-10.36 24 -7.72 24 -5 24 C-3.7480617 21.16227318 -2.99248045 18.92330063 -2.6875 15.8125 C-2 13 -2 13 0.0625 11.625 C3.81650189 10.82627619 7.16377939 10.86995862 11 11 C11.33 8.03 11.66 5.06 12 2 C8.04 2 4.08 2 0 2 C0 1.34 0 0.68 0 0 Z " fill="#42C1E8" transform="translate(139,223)"/>
<path d="M0 0 C0.12117188 0.85464844 0.24234375 1.70929688 0.3671875 2.58984375 C0.53476563 3.69457031 0.70234375 4.79929688 0.875 5.9375 C1.11863281 7.59072266 1.11863281 7.59072266 1.3671875 9.27734375 C1.68042969 10.62505859 1.68042969 10.62505859 2 12 C2.66 12.33 3.32 12.66 4 13 C4.99 12.67 5.98 12.34 7 12 C12.55555556 13.55555556 12.55555556 13.55555556 14 15 C14.08758003 16.99964982 14.10696576 19.0023611 14.09765625 21.00390625 C14.09443359 22.21884766 14.09121094 23.43378906 14.08789062 24.68554688 C14.07532227 26.60463867 14.07532227 26.60463867 14.0625 28.5625 C14.05798828 29.84576172 14.05347656 31.12902344 14.04882812 32.45117188 C14.03699555 35.6341342 14.01905944 38.81707274 14 42 C18.29 42 22.58 42 27 42 C26.505 42.99 26.505 42.99 26 44 C24.58344207 44.0272415 23.16672955 44.04650467 21.75 44.0625 C20.56664062 44.07990234 20.56664062 44.07990234 19.359375 44.09765625 C17 44 17 44 13 43 C13 34.09 13 25.18 13 16 C8.38 16 3.76 16 -1 16 C-1 11.38 -1 6.76 -1 2 C-5.62 2 -10.24 2 -15 2 C-15 6.62 -15 11.24 -15 16 C-15.66 16.33 -16.32 16.66 -17 17 C-18.65102315 12.04693056 -18.63299924 6.89899773 -17 2 C-16.67 1.34 -16.34 0.68 -16 0 C-10.42289352 -1.06795656 -5.60563042 -0.82622671 0 0 Z " fill="#3EBDE1" transform="translate(154,207)"/>
<path d="M0 0 C4.29 0 8.58 0 13 0 C13 4.29 13 8.58 13 13 C8.71 13 4.42 13 0 13 C0 8.71 0 4.42 0 0 Z " fill="#15578B" transform="translate(98,168)"/>
<path d="M0 0 C4.29 0 8.58 0 13 0 C13 4.29 13 8.58 13 13 C8.71 13 4.42 13 0 13 C0 8.71 0 4.42 0 0 Z " fill="#155589" transform="translate(195,140)"/>
<path d="M0 0 C4.29 0 8.58 0 13 0 C13 3.96 13 7.92 13 12 C8.71 12 4.42 12 0 12 C0 8.04 0 4.08 0 0 Z " fill="#165991" transform="translate(112,237)"/>
<path d="M0 0 C2.55862325 5.11724651 3.09123185 6.42259277 2 12 C2.77085937 11.96519531 3.54171875 11.93039063 4.3359375 11.89453125 C5.33882812 11.86746094 6.34171875 11.84039062 7.375 11.8125 C8.87160156 11.76029297 8.87160156 11.76029297 10.3984375 11.70703125 C11.25695312 11.80371094 12.11546875 11.90039062 13 12 C13.99 13.485 13.99 13.485 15 15 C10.13112025 16.90005063 7.57710066 17 2 17 C2 38.78 2 60.56 2 83 C1.01 82.67 0.02 82.34 -1 82 C-0.34 82 0.32 82 1 82 C1 59.23 1 36.46 1 13 C0.34 13 -0.32 13 -1 13 C-0.67 8.71 -0.34 4.42 0 0 Z " fill="#0E4974" transform="translate(152,69)"/>
<path d="M0 0 C0.33 0 0.66 0 1 0 C1.05057624 7.79619588 1.08568114 15.5923497 1.10986328 23.38867188 C1.11994089 26.04265931 1.13360313 28.6966356 1.15087891 31.35058594 C1.17504992 35.15823107 1.18646535 38.96572984 1.1953125 42.7734375 C1.20563507 43.96617279 1.21595764 45.15890808 1.22659302 46.38778687 C1.22674408 47.48877716 1.22689514 48.58976746 1.22705078 49.72412109 C1.231492 50.69674896 1.23593323 51.66937683 1.24050903 52.67147827 C1 55 1 55 -1 57 C-3.3828125 56.9765625 -3.3828125 56.9765625 -6.125 56.625 C-7.03507813 56.51414063 -7.94515625 56.40328125 -8.8828125 56.2890625 C-9.58148438 56.19367188 -10.28015625 56.09828125 -11 56 C-11 55.34 -11 54.68 -11 54 C-7.7 54 -4.4 54 -1 54 C-1.00523682 52.39970947 -1.01047363 50.79941895 -1.01586914 49.15063477 C-1.03391114 43.23739171 -1.04542907 37.32415111 -1.05493164 31.41088867 C-1.0599737 28.84708243 -1.06680714 26.28327909 -1.07543945 23.71948242 C-1.08751064 20.04344979 -1.09322942 16.36745502 -1.09765625 12.69140625 C-1.10281754 11.53725723 -1.10797882 10.38310822 -1.11329651 9.19398499 C-1.11337204 8.13296066 -1.11344757 7.07193634 -1.11352539 5.97875977 C-1.115746 5.03944107 -1.11796661 4.10012238 -1.12025452 3.13233948 C-1 1 -1 1 0 0 Z " fill="#0F4557" transform="translate(223,154)"/>
<path d="M0 0 C3.63 0 7.26 0 11 0 C12.45781334 4.37344001 12.0598032 8.39515357 12 13 C16.29 13.33 20.58 13.66 25 14 C25 16.83967231 24.59732819 19.23735711 24 22 C18.25 21.25 18.25 21.25 16 19 C14.68252676 18.30251417 13.35085807 17.63040043 12 17 C12 16.34 12 15.68 12 15 C11.01 14.67 10.02 14.34 9 14 C8.92670204 9.60212211 8.92603934 6.29584263 10 2 C6.7 2 3.4 2 0 2 C0 1.34 0 0.68 0 0 Z " fill="#194F73" transform="translate(198,138)"/>
<path d="M0 0 C0.99 0.33 1.98 0.66 3 1 C3.33 9.25 3.66 17.5 4 26 C7.96 26.33 11.92 26.66 16 27 C17 28 17 28 17.09765625 30.72265625 C17.06510417 33.81510417 17.03255208 36.90755208 17 40 C21.29 40 25.58 40 30 40 C26.35581659 42.42945561 25.07076636 42.0828781 20.8125 41.625 C19.72582031 41.51414063 18.63914062 41.40328125 17.51953125 41.2890625 C16.68808594 41.19367188 15.85664062 41.09828125 15 41 C15 37.37 15 33.74 15 30 C10.71 30 6.42 30 2 30 C0.60439955 27.20879909 0.78191712 24.79794308 0.68359375 21.6796875 C0.64169922 20.42285156 0.59980469 19.16601562 0.55664062 17.87109375 C0.51732422 16.55238281 0.47800781 15.23367187 0.4375 13.875 C0.39430488 12.53514249 0.35069027 11.19529844 0.30664062 9.85546875 C0.20029019 6.57042185 0.09826192 3.28529719 0 0 Z " fill="#194B67" transform="translate(95,209)"/>
<path d="M0 0 C4.62 0 9.24 0 14 0 C14 18.15 14 36.3 14 55 C13.67 55 13.34 55 13 55 C12.10349324 48.77230889 11.79501656 42.66221392 11.68359375 36.375 C11.66281265 35.38749756 11.64203156 34.39999512 11.62062073 33.38256836 C11.55569247 30.25511039 11.4965063 27.12757473 11.4375 24 C11.39426072 21.86848183 11.35064478 19.73697127 11.30664062 17.60546875 C11.20006992 12.40372368 11.09864581 7.20190115 11 2 C7.37 1.67 3.74 1.34 0 1 C0 0.67 0 0.34 0 0 Z " fill="#2B87ED" transform="translate(111,181)"/>
<path d="M0 0 C3.63 0 7.26 0 11 0 C11 3.96 11 7.92 11 12 C9.906875 11.835 8.81375 11.67 7.6875 11.5 C4.12474127 10.93281816 4.12474127 10.93281816 1 11 C0.67 7.37 0.34 3.74 0 0 Z " fill="#185887" transform="translate(98,112)"/>
<path d="M0 0 C3.63 0 7.26 0 11 0 C11 2.31 11 4.62 11 7 C10.01 7.33 9.02 7.66 8 8 C7.67 8.99 7.34 9.98 7 11 C4.69 11 2.38 11 0 11 C0 7.37 0 3.74 0 0 Z " fill="#175787" transform="translate(210,112)"/>
<path d="M0 0 C2.05078125 0.03255208 4.1015625 0.06510417 6.15234375 0.09765625 C6.99031106 4.75303018 7.16851295 8.468441 6.15234375 13.09765625 C3.18234375 12.10765625 0.21234375 11.11765625 -2.84765625 10.09765625 C-2.9453125 3.1640625 -2.9453125 3.1640625 -2.84765625 1.09765625 C-1.84765625 0.09765625 -1.84765625 0.09765625 0 0 Z " fill="#155688" transform="translate(143.84765625,70.90234375)"/>
<path d="M0 0 C9.5592124 -0.45201179 9.5592124 -0.45201179 14.1875 1 C16.31349336 3.34592371 16.25555242 4.00311383 16.25 7.0625 C16.1675 8.361875 16.085 9.66125 16 11 C16.33 11.66 16.66 12.32 17 13 C20.63 13 24.26 13 28 13 C28 14.32 28 15.64 28 17 C23.38 17 18.76 17 14 17 C14 12.38 14 7.76 14 3 C9.38 3 4.76 3 0 3 C0 2.01 0 1.02 0 0 Z " fill="#2C86ED" transform="translate(167,150)"/>
<path d="M0 0 C0.22174933 1.45635371 0.42698698 2.91522956 0.625 4.375 C0.74101562 5.18710938 0.85703125 5.99921875 0.9765625 6.8359375 C0.98429688 7.55007812 0.99203125 8.26421875 1 9 C0.34 9.66 -0.32 10.32 -1 11 C-4.625 10.625 -4.625 10.625 -8 10 C-10.09230769 5.56923077 -10.09230769 5.56923077 -9.625 2.6875 C-9.41875 2.130625 -9.2125 1.57375 -9 1 C-2.25 0 -2.25 0 0 0 Z " fill="#3A7AFC" transform="translate(178,182)"/>
<path d="M0 0 C0.66 0 1.32 0 2 0 C2.72559528 9.36795337 3.10565541 18.5966687 3 28 C-1.29 28 -5.58 28 -10 28 C-10 27.01 -10 26.02 -10 25 C-6.7 25.33 -3.4 25.66 0 26 C0 17.42 0 8.84 0 0 Z " fill="#3E75D0" transform="translate(193,209)"/>
<path d="M0 0 C0.99 5.61 1.98 11.22 3 17 C1.68 16.67 0.36 16.34 -1 16 C-1.04898438 15.38511719 -1.09796875 14.77023438 -1.1484375 14.13671875 C-1.22320312 13.32847656 -1.29796875 12.52023438 -1.375 11.6875 C-1.44460937 10.88699219 -1.51421875 10.08648437 -1.5859375 9.26171875 C-1.89564426 6.72775559 -1.89564426 6.72775559 -4 4 C-6.20725073 3.63637182 -6.20725073 3.63637182 -8.625 3.8125 C-9.44226563 3.83957031 -10.25953125 3.86664063 -11.1015625 3.89453125 C-12.04128906 3.94673828 -12.04128906 3.94673828 -13 4 C-13.33 2.68 -13.66 1.36 -14 0 C-12.2300132 -0.19532961 -10.45895721 -0.38098882 -8.6875 -0.5625 C-7.70136719 -0.66691406 -6.71523437 -0.77132812 -5.69921875 -0.87890625 C-3 -1 -3 -1 0 0 Z " fill="#1D5278" transform="translate(125,138)"/>
<path d="M0 0 C0.33 0 0.66 0 1 0 C1 13.2 1 26.4 1 40 C-0.32 39.67 -1.64 39.34 -3 39 C-2.505 38.505 -2.505 38.505 -2 38 C-1.85228116 35.44347419 -1.76500594 32.91049714 -1.71875 30.3515625 C-1.70034058 29.5832309 -1.68193115 28.81489929 -1.66296387 28.02328491 C-1.60403699 25.55727005 -1.55131889 23.09118423 -1.5 20.625 C-1.43234913 17.38787404 -1.35861445 14.15096916 -1.28125 10.9140625 C-1.26767456 10.16710114 -1.25409912 9.42013977 -1.2401123 8.65054321 C-1.16505737 5.52007414 -0.99698208 2.99094624 0 0 Z " fill="#46B2FE" transform="translate(180,209)"/>
<path d="M0 0 C4.62 0 9.24 0 14 0 C14 8.91 14 17.82 14 27 C12.12774634 23.25549268 11.75449067 22.14972809 11.8046875 18.234375 C11.81113281 17.34492188 11.81757812 16.45546875 11.82421875 15.5390625 C11.84097656 14.61867187 11.85773438 13.69828125 11.875 12.75 C11.88402344 11.81414062 11.89304687 10.87828125 11.90234375 9.9140625 C11.92586364 7.60911343 11.95873147 5.3046884 12 3 C10.82630859 2.92652344 10.82630859 2.92652344 9.62890625 2.8515625 C8.11103516 2.73941406 8.11103516 2.73941406 6.5625 2.625 C5.04849609 2.52058594 5.04849609 2.52058594 3.50390625 2.4140625 C2.67761719 2.27742187 1.85132812 2.14078125 1 2 C0.67 1.34 0.34 0.68 0 0 Z " fill="#1655A6" transform="translate(97,209)"/>
<path d="M0 0 C1.97909398 -0.02686553 3.95828971 -0.04633375 5.9375 -0.0625 C7.03964844 -0.07410156 8.14179688 -0.08570312 9.27734375 -0.09765625 C12 0 12 0 13 1 C13.08737645 2.85369611 13.10698153 4.71067541 13.09765625 6.56640625 C13.09443359 7.69111328 13.09121094 8.81582031 13.08789062 9.97460938 C13.07951172 11.15861328 13.07113281 12.34261719 13.0625 13.5625 C13.05798828 14.75037109 13.05347656 15.93824219 13.04882812 17.16210938 C13.03699675 20.10812226 13.02051287 23.05403681 13 26 C12.34 26 11.68 26 11 26 C11 18.08 11 10.16 11 2 C7.37 2 3.74 2 0 2 C0 1.34 0 0.68 0 0 Z " fill="#104259" transform="translate(183,110)"/>
<path d="M0 0 C0.33 0 0.66 0 1 0 C1 8.58 1 17.16 1 26 C4.96 25.505 4.96 25.505 9 25 C11.08632697 22.08158143 11.08632697 22.08158143 12 19 C12.33 19 12.66 19 13 19 C13.33 21.97 13.66 24.94 14 28 C9.38 28 4.76 28 0 28 C0 18.76 0 9.52 0 0 Z " fill="#387BE6" transform="translate(111,209)"/>
<path d="M0 0 C1.32 0.33 2.64 0.66 4 1 C4 5.62 4 10.24 4 15 C-2.93 14.505 -2.93 14.505 -10 14 C-7 12 -7 12 -3 12 C-1.16456177 10.87300578 -1.16456177 10.87300578 0 9 C0.36146457 6.71669899 0.36146457 6.71669899 0.1875 4.3125 C0.16042969 3.50425781 0.13335937 2.69601563 0.10546875 1.86328125 C0.07066406 1.24839844 0.03585938 0.63351563 0 0 Z " fill="#174E72" transform="translate(220,110)"/>
<path d="M0 0 C0.66 0.33 1.32 0.66 2 1 C2.02686553 2.97909398 2.04633375 4.95828971 2.0625 6.9375 C2.07410156 8.03964844 2.08570313 9.14179688 2.09765625 10.27734375 C2 13 2 13 1 14 C-0.85287502 14.07226502 -2.70833878 14.0838122 -4.5625 14.0625 C-5.57441406 14.05347656 -6.58632812 14.04445312 -7.62890625 14.03515625 C-8.41136719 14.02355469 -9.19382813 14.01195312 -10 14 C-9.67 13.01 -9.34 12.02 -9 11 C-7.15234375 10.26953125 -7.15234375 10.26953125 -4.9375 9.8125 C-4.20402344 9.65394531 -3.47054687 9.49539062 -2.71484375 9.33203125 C-2.14894531 9.22246094 -1.58304688 9.11289063 -1 9 C-1.020625 7.700625 -1.04125 6.40125 -1.0625 5.0625 C-1.08399454 3.70834367 -1.07148199 2.35243917 -1 1 C-0.67 0.67 -0.34 0.34 0 0 Z " fill="#1C4A70" transform="translate(208,210)"/>
<path d="M0 0 C2.55862325 5.11724651 3.09123185 6.42259277 2 12 C2.77085937 11.96519531 3.54171875 11.93039063 4.3359375 11.89453125 C5.33882812 11.86746094 6.34171875 11.84039062 7.375 11.8125 C8.87160156 11.76029297 8.87160156 11.76029297 10.3984375 11.70703125 C11.25695312 11.80371094 12.11546875 11.90039062 13 12 C13.99 13.485 13.99 13.485 15 15 C10.07262981 16.97094808 6.21979128 17.1799928 1 17 C1 15.68 1 14.36 1 13 C0.34 13 -0.32 13 -1 13 C-0.67 8.71 -0.34 4.42 0 0 Z " fill="#103F57" transform="translate(152,69)"/>
<path d="M0 0 C0.99 0.33 1.98 0.66 3 1 C3.20086443 4.71599191 3.1519437 5.77208445 1 9 C4.63 9 8.26 9 12 9 C12.33 6.03 12.66 3.06 13 0 C13.33 0 13.66 0 14 0 C14 3.96 14 7.92 14 12 C9.38 12.33 4.76 12.66 0 13 C0 8.71 0 4.42 0 0 Z " fill="#41AFD9" transform="translate(125,238)"/>
<path d="M0 0 C1.32 0.33 2.64 0.66 4 1 C3.01 2.485 3.01 2.485 2 4 C1.67216171 6.44368974 1.67216171 6.44368974 1.68115234 9.20581055 C1.66128265 10.26668381 1.64141296 11.32755707 1.62094116 12.420578 C1.60938995 13.56440445 1.59783875 14.7082309 1.5859375 15.88671875 C1.56657135 17.05886429 1.5472052 18.23100983 1.5272522 19.43867493 C1.46739803 23.1882089 1.42104717 26.93777348 1.375 30.6875 C1.33682564 33.22722705 1.29777424 35.76694107 1.2578125 38.30664062 C1.16169165 44.53764497 1.07666115 50.76872751 1 57 C0.67 57 0.34 57 0 57 C0 38.19 0 19.38 0 0 Z " fill="#3FB0FE" transform="translate(125,181)"/>
<path d="M0 0 C1.93166016 0.01740234 1.93166016 0.01740234 3.90234375 0.03515625 C5.19269531 0.04417969 6.48304687 0.05320312 7.8125 0.0625 C8.81152344 0.07410156 9.81054688 0.08570312 10.83984375 0.09765625 C10.83984375 1.41765625 10.83984375 2.73765625 10.83984375 4.09765625 C10.17984375 3.76765625 9.51984375 3.43765625 8.83984375 3.09765625 C6.96927584 2.87015475 5.09298417 2.68802814 3.21484375 2.53515625 C2.21195312 2.45136719 1.2090625 2.36757812 0.17578125 2.28125 C-0.59507813 2.22066406 -1.3659375 2.16007812 -2.16015625 2.09765625 C-1.99644531 2.6803125 -1.83273438 3.26296875 -1.6640625 3.86328125 C-0.96679885 6.95502393 -1.09944209 9.94052018 -1.16015625 13.09765625 C3.29484375 12.60265625 3.29484375 12.60265625 7.83984375 12.09765625 C7.50984375 13.08765625 7.17984375 14.07765625 6.83984375 15.09765625 C3.86984375 14.76765625 0.89984375 14.43765625 -2.16015625 14.09765625 C-4.54313497 5.31042221 -4.54313497 5.31042221 -4.16015625 1.09765625 C-3.16015625 0.09765625 -3.16015625 0.09765625 0 0 Z " fill="#1A4F77" transform="translate(100.16015625,109.90234375)"/>
<path d="M0 0 C4.62 0 9.24 0 14 0 C15.04976964 3.14930893 15.10131595 5.38814456 15.0625 8.6875 C15.05347656 9.68136719 15.04445312 10.67523438 15.03515625 11.69921875 C15.02355469 12.45847656 15.01195312 13.21773437 15 14 C14.01 14 13.02 14 12 14 C11.67 10.37 11.34 6.74 11 3 C7.37 2.67 3.74 2.34 0 2 C0 1.34 0 0.68 0 0 Z " fill="#14475D" transform="translate(168,96)"/>
<path d="M0 0 C1.97909398 -0.02686553 3.95828971 -0.04633375 5.9375 -0.0625 C7.03964844 -0.07410156 8.14179687 -0.08570313 9.27734375 -0.09765625 C12 0 12 0 13 1 C13.14355117 5.00220653 13.04216403 8.99441683 13 13 C17.29 13 21.58 13 26 13 C22.35581659 15.42945561 21.07076636 15.0828781 16.8125 14.625 C15.72582031 14.51414063 14.63914062 14.40328125 13.51953125 14.2890625 C12.68808594 14.19367188 11.85664062 14.09828125 11 14 C11 10.37 11 6.74 11 3 C7.37 2.34 3.74 1.68 0 1 C0 0.67 0 0.34 0 0 Z " fill="#113B5D" transform="translate(99,236)"/>
<path d="M0 0 C0.33 0 0.66 0 1 0 C1 8.91 1 17.82 1 27 C0.34 26.67 -0.32 26.34 -1 26 C-1.22515501 22.04243356 -1.42727348 18.08402412 -1.625 14.125 C-1.68945312 12.99707031 -1.75390625 11.86914062 -1.8203125 10.70703125 C-1.871875 9.63066406 -1.9234375 8.55429688 -1.9765625 7.4453125 C-2.02893066 6.45031738 -2.08129883 5.45532227 -2.13525391 4.43017578 C-2 2 -2 2 0 0 Z " fill="#1554A6" transform="translate(96,181)"/>
<path d="M0 0 C0.33 0 0.66 0 1 0 C1.33 8.25 1.66 16.5 2 25 C4.97 25 7.94 25 11 25 C11.66 25.66 12.32 26.32 13 27 C8.71 27 4.42 27 0 27 C0 18.09 0 9.18 0 0 Z " fill="#1355A3" transform="translate(181,112)"/>
<path d="M0 0 C1.32 0.33 2.64 0.66 4 1 C3.7834375 2.03833984 3.7834375 2.03833984 3.5625 3.09765625 C1.96512166 11.51717125 1.79010947 19.46445193 2 28 C1.34 28 0.68 28 0 28 C0 18.76 0 9.52 0 0 Z " fill="#2F82EA" transform="translate(181,209)"/>
<path d="M0 0 C0.33 0 0.66 0 1 0 C1 4.29 1 8.58 1 13 C-3.29 13 -7.58 13 -12 13 C-12 12.34 -12 11.68 -12 11 C-10.54263913 10.80508548 -9.08405407 10.61930642 -7.625 10.4375 C-6.81289062 10.33308594 -6.00078125 10.22867188 -5.1640625 10.12109375 C-3 10 -3 10 -1 11 C-0.67 7.37 -0.34 3.74 0 0 Z " fill="#155CA5" transform="translate(110,168)"/>
<path d="M0 0 C4.29 0 8.58 0 13 0 C12.01 1.485 12.01 1.485 11 3 C8.36 2.67 5.72 2.34 3 2 C2.34 4.97 1.68 7.94 1 11 C1.66 11.33 2.32 11.66 3 12 C2.01 12 1.02 12 0 12 C0 8.04 0 4.08 0 0 Z " fill="#165E9E" transform="translate(181,237)"/>
<path d="M0 0 C0.33 0 0.66 0 1 0 C1 5.28 1 10.56 1 16 C4.63 16 8.26 16 12 16 C11.67 16.66 11.34 17.32 11 18 C9.20906809 18.08086147 7.41710372 18.13912702 5.625 18.1875 C4.12839844 18.23970703 4.12839844 18.23970703 2.6015625 18.29296875 C1.74304688 18.19628906 0.88453125 18.09960938 0 18 C-0.66 17.01 -1.32 16.02 -2 15 C-1.67 14.67 -1.34 14.34 -1 14 C-0.76472227 11.65012738 -0.58613583 9.29443961 -0.4375 6.9375 C-0.35371094 5.64714844 -0.26992187 4.35679687 -0.18359375 3.02734375 C-0.12300781 2.02832031 -0.06242187 1.02929688 0 0 Z " fill="#114062" transform="translate(83,192)"/>
<path d="M0 0 C3.63 0 7.26 0 11 0 C12.00496852 3.01490557 12.10335303 5.04181692 12.0625 8.1875 C12.05347656 9.08855469 12.04445312 9.98960937 12.03515625 10.91796875 C12.02355469 11.60503906 12.01195312 12.29210937 12 13 C11.34 13 10.68 13 10 13 C9.27204845 8.79405774 8.95026186 6.19895255 10 2 C6.7 2 3.4 2 0 2 C0 1.34 0 0.68 0 0 Z " fill="#18485E" transform="translate(198,138)"/>
<path d="M0 0 C0.33 0 0.66 0 1 0 C1.06058594 0.63808594 1.12117187 1.27617187 1.18359375 1.93359375 C1.26738281 2.75988281 1.35117188 3.58617187 1.4375 4.4375 C1.51871094 5.26121094 1.59992188 6.08492187 1.68359375 6.93359375 C1.78930815 8.98662025 1.78930815 8.98662025 3 10 C5.31952569 10.28101946 7.63885514 10.44782625 9.96875 10.62109375 C10.6390625 10.74613281 11.309375 10.87117187 12 11 C12.33 11.66 12.66 12.32 13 13 C8.71 13 4.42 13 0 13 C0 8.71 0 4.42 0 0 Z " fill="#1554A9" transform="translate(195,140)"/>
<path d="M0 0 C0.99 0.33 1.98 0.66 3 1 C3.99 6.61 4.98 12.22 6 18 C4.68 17.67 3.36 17.34 2 17 C2.02320312 16.32453125 2.04640625 15.6490625 2.0703125 14.953125 C2.09738281 13.61507812 2.09738281 13.61507812 2.125 12.25 C2.15980469 10.92742187 2.15980469 10.92742187 2.1953125 9.578125 C1.98909994 6.85611915 1.26755925 5.37542601 0 3 C0 2.01 0 1.02 0 0 Z " fill="#1C4867" transform="translate(122,137)"/>
<path d="M0 0 C0.99 0.33 1.98 0.66 3 1 C2.01 1.495 2.01 1.495 1 2 C1.33 5.63 1.66 9.26 2 13 C-1.42689636 14.14229879 -3.61102218 13.90861076 -7.1875 13.5625 C-8.27417969 13.46066406 -9.36085937 13.35882813 -10.48046875 13.25390625 C-11.31191406 13.17011719 -12.14335937 13.08632812 -13 13 C-13 12.67 -13 12.34 -13 12 C-9.04 12 -5.08 12 -1 12 C-1.020625 10.7625 -1.04125 9.525 -1.0625 8.25 C-1.06766681 5.3359175 -0.93015558 2.79046673 0 0 Z " fill="#1A4362" transform="translate(194,237)"/>
<path d="M0 0 C0.33 0 0.66 0 1 0 C1 4.62 1 9.24 1 14 C1.99 14.33 2.98 14.66 4 15 C2.35 14.67 0.7 14.34 -1 14 C-1.22226864 12.23086176 -1.42733873 10.45955629 -1.625 8.6875 C-1.74101562 7.70136719 -1.85703125 6.71523437 -1.9765625 5.69921875 C-2 3 -2 3 0 0 Z " fill="#1D4A5F" transform="translate(139,69)"/>
<path d="M0 0 C0.99 0.33 1.98 0.66 3 1 C2.01 1.495 2.01 1.495 1 2 C1 6.29 1 10.58 1 15 C-0.65 15.33 -2.3 15.66 -4 16 C-3.34 15.34 -2.68 14.68 -2 14 C-1.57277047 10.91082291 -1.57277047 10.91082291 -1.4375 7.4375 C-1.09722222 1.09722222 -1.09722222 1.09722222 0 0 Z " fill="#104D7A" transform="translate(97,166)"/>
<path d="M0 0 C2.64 0 5.28 0 8 0 C8 3.63 8 7.26 8 11 C7.01 10.01 6.02 9.02 5 8 C5 6.68 5 5.36 5 4 C4.01 4 3.02 4 2 4 C2 3.34 2 2.68 2 2 C1.34 1.34 0.68 0.68 0 0 Z " fill="#284F73" transform="translate(160,82)"/>
<path d="M0 0 C1.485 0.99 1.485 0.99 3 2 C2.67 6.29 2.34 10.58 2 15 C1.01 14.67 0.02 14.34 -1 14 C-1.02685938 11.85423363 -1.04633088 9.70837355 -1.0625 7.5625 C-1.07410156 6.36753906 -1.08570312 5.17257813 -1.09765625 3.94140625 C-1 1 -1 1 0 0 Z " fill="#0D3149" transform="translate(110,138)"/>
<path d="M0 0 C1.65 0 3.3 0 5 0 C5 4.62 5 9.24 5 14 C4.34 14 3.68 14 3 14 C3.061875 12.80375 3.12375 11.6075 3.1875 10.375 C3.20943937 6.26502405 2.13130434 3.5521739 0 0 Z " fill="#44B2FE" transform="translate(134,181)"/>
<path d="M0 0 C1.19882813 0.15275391 1.19882813 0.15275391 2.421875 0.30859375 C3.02515625 0.39238281 3.6284375 0.47617188 4.25 0.5625 C4.25 1.2225 4.25 1.8825 4.25 2.5625 C-0.04 2.5625 -4.33 2.5625 -8.75 2.5625 C-8.75 1.9025 -8.75 1.2425 -8.75 0.5625 C-5.62819599 -0.40411363 -3.22916205 -0.42738909 0 0 Z " fill="#16539D" transform="translate(175.75,108.4375)"/>
<path d="M0 0 C1.32 0 2.64 0 4 0 C4 4.62 4 9.24 4 14 C3.67 14 3.34 14 3 14 C2.01 9.38 1.02 4.76 0 0 Z " fill="#45B1FE" transform="translate(177,153)"/>
<path d="M0 0 C0.99 0 1.98 0 3 0 C3.125 7.625 3.125 7.625 2 11 C1.34 11 0.68 11 0 11 C0 7.37 0 3.74 0 0 Z " fill="#1D4975" transform="translate(109,113)"/>
<path d="M0 0 C4.29 0 8.58 0 13 0 C13 1.32 13 2.64 13 4 C12.34 3.67 11.68 3.34 11 3 C9.12943209 2.7724985 7.25314042 2.59037189 5.375 2.4375 C4.37210937 2.35371094 3.36921875 2.26992187 2.3359375 2.18359375 C1.56507812 2.12300781 0.79421875 2.06242187 0 2 C0 1.34 0 0.68 0 0 Z " fill="#0E4E63" transform="translate(98,110)"/>
<path d="M0 0 C0.33 0 0.66 0 1 0 C1 4.29 1 8.58 1 13 C-0.32 12.67 -1.64 12.34 -3 12 C-2.67 11.67 -2.34 11.34 -2 11 C-1.79224439 9.33795513 -1.63281745 7.66970509 -1.5 6 C-1.11111111 1.11111111 -1.11111111 1.11111111 0 0 Z " fill="#4BB6EF" transform="translate(180,236)"/>
<path d="M0 0 C3.96 0 7.92 0 12 0 C12 1.32 12 2.64 12 4 C10.3745692 3.85904936 8.74965949 3.71207913 7.125 3.5625 C6.22007812 3.48128906 5.31515625 3.40007812 4.3828125 3.31640625 C2 3 2 3 0 2 C0 1.34 0 0.68 0 0 Z " fill="#327FF3" transform="translate(183,163)"/>
<path d="M0 0 C2.64 0 5.28 0 8 0 C7.34 0.66 6.68 1.32 6 2 C4.68 2 3.36 2 2 2 C1.67 5.63 1.34 9.26 1 13 C0.67 13 0.34 13 0 13 C0 8.71 0 4.42 0 0 Z " fill="#43B6FF" transform="translate(153,181)"/>
<path d="M0 0 C2.97 0 5.94 0 9 0 C9 0.33 9 0.66 9 1 C7.02 1.33 5.04 1.66 3 2 C2.87625 2.804375 2.7525 3.60875 2.625 4.4375 C2.41875 5.283125 2.2125 6.12875 2 7 C1.01 7.495 1.01 7.495 0 8 C0 5.36 0 2.72 0 0 Z " fill="#42B4FE" transform="translate(167,153)"/>
<path d="M0 0 C0.91007813 0.10183594 1.82015625 0.20367187 2.7578125 0.30859375 C3.45648438 0.39238281 4.15515625 0.47617188 4.875 0.5625 C4.875 1.2225 4.875 1.8825 4.875 2.5625 C1.245 2.5625 -2.385 2.5625 -6.125 2.5625 C-6.455 1.9025 -6.785 1.2425 -7.125 0.5625 C-4.50184968 -0.74907516 -2.89466564 -0.33399988 0 0 Z " fill="#0E4B5E" transform="translate(215.125,109.4375)"/>
<path d="M0 0 C1.65 0 3.3 0 5 0 C5 4.62 5 9.24 5 14 C4.34 13.67 3.68 13.34 3 13 C3.03480469 12.31292969 3.06960937 11.62585938 3.10546875 10.91796875 C3.13253906 10.01691406 3.15960938 9.11585938 3.1875 8.1875 C3.22230469 7.29417969 3.25710937 6.40085938 3.29296875 5.48046875 C2.95081002 2.58352485 2.24606427 1.77444972 0 0 Z " fill="#278BE8" transform="translate(176,181)"/>
<path d="M0 0 C2.31 0 4.62 0 7 0 C6.67 1.32 6.34 2.64 6 4 C6 3.34 6 2.68 6 2 C4.02 2.33 2.04 2.66 0 3 C0 2.01 0 1.02 0 0 Z " fill="#347FF2" transform="translate(186,209)"/>
<path d="M0 0 C0.99 0.33 1.98 0.66 3 1 C3.33 4.3 3.66 7.6 4 11 C3.34 9.68 2.68 8.36 2 7 C1.62875 6.319375 1.2575 5.63875 0.875 4.9375 C0 3 0 3 0 0 Z " fill="#204054" transform="translate(122,137)"/>
<path d="M0 0 C0.99 0.33 1.98 0.66 3 1 C2.01 1.495 2.01 1.495 1 2 C0.53248212 4.35599235 0.53248212 4.35599235 0.375 7.0625 C0.30023438 7.98160156 0.22546875 8.90070313 0.1484375 9.84765625 C0.09945312 10.55792969 0.05046875 11.26820313 0 12 C-0.33 12 -0.66 12 -1 12 C-1.02687279 10.18757948 -1.04633715 8.37504767 -1.0625 6.5625 C-1.07410156 5.55316406 -1.08570312 4.54382813 -1.09765625 3.50390625 C-1 1 -1 1 0 0 Z " fill="#244A6B" transform="translate(97,166)"/>
<path d="M0 0 C-0.33 0.99 -0.66 1.98 -1 3 C-3.31 3 -5.62 3 -8 3 C-8 2.34 -8 1.68 -8 1 C-2.25 0 -2.25 0 0 0 Z " fill="#1B4F66" transform="translate(210,221)"/>
<path d="" fill="#2A2A55" transform="translate(0,0)"/>
<path d="" fill="#008080" transform="translate(0,0)"/>
<path d="" fill="#000000" transform="translate(0,0)"/>
<path d="" fill="#000000" transform="translate(0,0)"/>
<path d="" fill="#008080" transform="translate(0,0)"/>
<path d="" fill="#404080" transform="translate(0,0)"/>
<path d="" fill="#000000" transform="translate(0,0)"/>
</svg>
