<?xml version="1.0" standalone="no"?>
<!DOCTYPE svg PUBLIC "-//W3C//DTD SVG 20010904//EN"
 "http://www.w3.org/TR/2001/REC-SVG-20010904/DTD/svg10.dtd">
<svg version="1.0" xmlns="http://www.w3.org/2000/svg"
 width="380.000000pt" height="380.000000pt" viewBox="0 0 380.000000 380.000000"
 preserveAspectRatio="xMidYMid meet">

<g transform="translate(0.000000,380.000000) scale(0.100000,-0.100000)"
fill="#D66161" stroke="none">
<path d="M1793 3220 c-372 -37 -702 -297 -825 -650 -52 -149 -51 -136 -55
-915 -5 -764 -3 -807 39 -888 27 -54 94 -118 153 -147 42 -21 64 -25 145 -25
79 0 103 4 141 23 74 36 125 87 161 160 l33 66 3 212 3 212 242 4 c212 4 252
8 322 27 452 127 754 548 721 1006 -40 563 -523 970 -1083 915z m224 -700
c189 -83 242 -327 102 -475 -83 -88 -120 -99 -342 -103 l-189 -4 4 194 c3 187
4 195 30 244 78 148 247 210 395 144z"/>
</g>
</svg>
